<svg version="1.2" xmlns="http://www.w3.org/2000/svg" viewBox="0 0 378 778" width="378" height="778">
	<title>33632328_phone_035-ai</title>
	<defs>
		<linearGradient id="g1" x2="1" gradientUnits="userSpaceOnUse" gradientTransform="matrix(0,82.96,-1.19,0,377.552,163.481)">
			<stop offset="0" stop-color="#3b3b3b"/>
			<stop offset=".019" stop-color="#e6e6e6"/>
			<stop offset=".038" stop-color="#333333"/>
			<stop offset=".082" stop-color="#000000"/>
			<stop offset=".105" stop-color="#666666"/>
			<stop offset=".905" stop-color="#313131"/>
			<stop offset=".939" stop-color="#000000"/>
			<stop offset=".965" stop-color="#333333"/>
			<stop offset=".983" stop-color="#cccccc"/>
			<stop offset="1" stop-color="#2c2c2c"/>
		</linearGradient>
		<linearGradient id="g2" x2="1" gradientUnits="userSpaceOnUse" gradientTransform="matrix(0,82.948,-0.595,0,378.147,163.495)">
			<stop offset="0" stop-color="#a0a0a0"/>
			<stop offset=".064" stop-color="#333333"/>
			<stop offset=".186" stop-color="#8a8a8a"/>
			<stop offset=".806" stop-color="#8a8a8a"/>
			<stop offset=".919" stop-color="#333333"/>
			<stop offset="1" stop-color="#a0a0a0"/>
		</linearGradient>
		<linearGradient id="g3" x2="1" gradientUnits="userSpaceOnUse" gradientTransform="matrix(0,55.76,-1.19,0,2.448,163.481)">
			<stop offset="0" stop-color="#3b3b3b"/>
			<stop offset=".019" stop-color="#e6e6e6"/>
			<stop offset=".038" stop-color="#333333"/>
			<stop offset=".082" stop-color="#000000"/>
			<stop offset=".105" stop-color="#666666"/>
			<stop offset=".905" stop-color="#313131"/>
			<stop offset=".939" stop-color="#000000"/>
			<stop offset=".965" stop-color="#333333"/>
			<stop offset=".983" stop-color="#cccccc"/>
			<stop offset="1" stop-color="#2c2c2c"/>
		</linearGradient>
		<linearGradient id="g4" x2="1" gradientUnits="userSpaceOnUse" gradientTransform="matrix(0,55.748,-0.595,0,1.853,163.495)">
			<stop offset="0" stop-color="#a0a0a0"/>
			<stop offset=".064" stop-color="#333333"/>
			<stop offset=".186" stop-color="#8a8a8a"/>
			<stop offset=".806" stop-color="#8a8a8a"/>
			<stop offset=".919" stop-color="#333333"/>
			<stop offset="1" stop-color="#a0a0a0"/>
		</linearGradient>
		<linearGradient id="g5" x2="1" gradientUnits="userSpaceOnUse" gradientTransform="matrix(0,-55.763,1.275,0,-1215.124,219.258)">
			<stop offset="0" stop-color="#353540"/>
			<stop offset=".053" stop-color="#000000"/>
			<stop offset=".518" stop-color="#333333"/>
			<stop offset=".965" stop-color="#000000"/>
			<stop offset="1" stop-color="#262c31"/>
		</linearGradient>
		<linearGradient id="g6" x2="1" gradientUnits="userSpaceOnUse" gradientTransform="matrix(0,55.76,-1.19,0,2.448,233.393)">
			<stop offset="0" stop-color="#3b3b3b"/>
			<stop offset=".019" stop-color="#e6e6e6"/>
			<stop offset=".038" stop-color="#333333"/>
			<stop offset=".082" stop-color="#000000"/>
			<stop offset=".105" stop-color="#666666"/>
			<stop offset=".905" stop-color="#313131"/>
			<stop offset=".939" stop-color="#000000"/>
			<stop offset=".965" stop-color="#333333"/>
			<stop offset=".983" stop-color="#cccccc"/>
			<stop offset="1" stop-color="#2c2c2c"/>
		</linearGradient>
		<linearGradient id="g7" x2="1" gradientUnits="userSpaceOnUse" gradientTransform="matrix(0,55.748,-0.595,0,1.853,233.408)">
			<stop offset="0" stop-color="#a0a0a0"/>
			<stop offset=".064" stop-color="#333333"/>
			<stop offset=".186" stop-color="#8a8a8a"/>
			<stop offset=".806" stop-color="#8a8a8a"/>
			<stop offset=".919" stop-color="#333333"/>
			<stop offset="1" stop-color="#a0a0a0"/>
		</linearGradient>
		<linearGradient id="g8" x2="1" gradientUnits="userSpaceOnUse" gradientTransform="matrix(0,-55.763,1.275,0,-1215.124,289.171)">
			<stop offset="0" stop-color="#353540"/>
			<stop offset=".053" stop-color="#000000"/>
			<stop offset=".518" stop-color="#333333"/>
			<stop offset=".965" stop-color="#000000"/>
			<stop offset="1" stop-color="#262c31"/>
		</linearGradient>
		<linearGradient id="g9" x2="1" gradientUnits="userSpaceOnUse" gradientTransform="matrix(0,30.26,-1.19,0,2.448,97.464)">
			<stop offset="0" stop-color="#3b3b3b"/>
			<stop offset=".019" stop-color="#e6e6e6"/>
			<stop offset=".038" stop-color="#333333"/>
			<stop offset=".082" stop-color="#000000"/>
			<stop offset=".105" stop-color="#666666"/>
			<stop offset=".905" stop-color="#313131"/>
			<stop offset=".939" stop-color="#000000"/>
			<stop offset=".965" stop-color="#333333"/>
			<stop offset=".983" stop-color="#cccccc"/>
			<stop offset="1" stop-color="#2c2c2c"/>
		</linearGradient>
		<linearGradient id="g10" x2="1" gradientUnits="userSpaceOnUse" gradientTransform="matrix(0,30.248,-0.595,0,1.853,97.479)">
			<stop offset="0" stop-color="#a0a0a0"/>
			<stop offset=".064" stop-color="#333333"/>
			<stop offset=".186" stop-color="#8a8a8a"/>
			<stop offset=".806" stop-color="#8a8a8a"/>
			<stop offset=".919" stop-color="#333333"/>
			<stop offset="1" stop-color="#a0a0a0"/>
		</linearGradient>
		<linearGradient id="g11" x2="1" gradientUnits="userSpaceOnUse" gradientTransform="matrix(0,-30.263,1.275,0,-354.872,127.741)">
			<stop offset="0" stop-color="#353540"/>
			<stop offset=".053" stop-color="#000000"/>
			<stop offset=".518" stop-color="#333333"/>
			<stop offset=".965" stop-color="#000000"/>
			<stop offset="1" stop-color="#262c31"/>
		</linearGradient>
		<linearGradient id="g12" x2="1" gradientUnits="userSpaceOnUse" gradientTransform="matrix(0,-11.723,11.722,0,213.732,36.213)">
			<stop offset="0" stop-color="#666666"/>
			<stop offset="1" stop-color="#010104"/>
		</linearGradient>
		<linearGradient id="g13" x2="1" gradientUnits="userSpaceOnUse" gradientTransform="matrix(4.829,5.613,-5.614,4.829,217.364,27.297)">
			<stop offset="0" stop-color="#171919"/>
			<stop offset="1" stop-color="#4e4f51"/>
		</linearGradient>
		<linearGradient id="g14" x2="1" gradientUnits="userSpaceOnUse" gradientTransform="matrix(0,6.698,-6.698,0,223.083,27.44)">
			<stop offset="0" stop-color="#0b131c"/>
			<stop offset="1" stop-color="#354039"/>
		</linearGradient>
		<linearGradient id="g15" x2="1" gradientUnits="userSpaceOnUse" gradientTransform="matrix(-5.95,-5.95,5.95,-5.95,219.681,36.582)">
			<stop offset="0" stop-color="#231f20"/>
			<stop offset=".785" stop-color="#0095ee"/>
			<stop offset="1" stop-color="#231f20"/>
		</linearGradient>
		<radialGradient id="g16" cx="0" cy="0" r="1" gradientUnits="userSpaceOnUse" gradientTransform="matrix(2.975,0,0,2.975,219.681,30.632)">
			<stop offset="0" stop-color="#231f20"/>
			<stop offset=".733" stop-color="#00adee"/>
			<stop offset="1" stop-color="#231f20"/>
		</radialGradient>
		<radialGradient id="g17" cx="0" cy="0" r="1" gradientUnits="userSpaceOnUse" gradientTransform="matrix(1.063,0,0,1.063,221.316,32.184)">
			<stop offset="0" stop-color="#cccccc"/>
			<stop offset="1" stop-color="#000000"/>
		</radialGradient>
	</defs>
	<style>
		.s0 { fill: #000000 } 
		.s1 { fill: #ffffff } 
		.s2 { fill: #1a1a1a } 
		.s3 { fill: url(#g1) } 
		.s4 { fill: url(#g2) } 
		.s5 { fill: url(#g3) } 
		.s6 { fill: url(#g4) } 
		.s7 { fill: url(#g5) } 
		.s8 { fill: url(#g6) } 
		.s9 { fill: url(#g7) } 
		.s10 { fill: url(#g8) } 
		.s11 { fill: url(#g9) } 
		.s12 { fill: url(#g10) } 
		.s13 { fill: url(#g11) } 
		.s14 { fill: url(#g12) } 
		.s15 { fill: url(#g13) } 
		.s16 { fill: url(#g14) } 
		.s17 { fill: url(#g15) } 
		.s18 { mix-blend-mode: multiply;fill: url(#g16) } 
		.s19 { mix-blend-mode: screen;fill: url(#g17) } 
	</style>
	<g id="Layer 1">
		<path id="&lt;Compound Path&gt;" fill-rule="evenodd" class="s0" d="m376.4 53.8c0 10.7 0 660.9 0 670.4 0 29-23.6 52.5-52.6 52.5h-266.3c-29.1 0-52.6-23.5-52.6-52.5 0-9.5 0-659.7 0-670.4 0-29 23.5-52.5 52.6-52.5h266.3c29 0 52.6 23.5 52.6 52.5zm-5.1 1.9c0-27.3-22.1-49.3-49.3-49.3h-262.7c-27.2 0-49.3 22-49.3 49.3 0 10.6 0 657.2 0 666.6 0 27.3 22.1 49.3 49.3 49.3h262.7c27.2 0 49.3-22 49.3-49.3 0-9.4 0-656 0-666.6z"/>
		<g id="&lt;Group&gt;" style="opacity: .7;mix-blend-mode: screen">
			<path id="&lt;Path&gt;" class="s1" d="m18.9 19.4c10.7-9.6 24.6-17 40.8-16.8l252.6 0.5c32.9 2 61.8 20 62.9 58.2 0 4.2 2.3-32-21.2-47.9-11.2-8-27.7-11.5-37.6-11.7-16.2-0.3-230.2-0.6-256.4 0-21.9 0.5-32.3 9.4-41.1 17.7z"/>
		</g>
		<g id="&lt;Group&gt;">
			<path id="&lt;Compound Path&gt;" fill-rule="evenodd" class="s2" d="m371.3 55.7c0 10.6 0 657.2 0 666.6 0 27.3-22.1 49.3-49.3 49.3h-262.7c-27.2 0-49.3-22-49.3-49.3 0-9.4 0-656 0-666.6 0-27.3 22.1-49.3 49.3-49.3h262.7c27.2 0 49.3 22 49.3 49.3zm-2.6 1.4c0-26.6-21.6-48.2-48.2-48.2h-259.7c-26.6 0-48.2 21.6-48.2 48.2 0 10.7 0 654.3 0 663.8 0 26.6 21.6 48.2 48.2 48.2h259.7c26.6 0 48.2-21.6 48.2-48.2 0-9.4 0-653.2 0-663.8z"/>
			<path id="&lt;Compound Path&gt;" fill-rule="evenodd" class="s0" d="m322 771.9h-262.7c-27.3 0-49.5-22.2-49.5-49.6v-666.6c0-27.4 22.2-49.6 49.5-49.6h262.7c27.3 0 49.5 22.2 49.5 49.6v666.6c0 27.4-22.2 49.6-49.5 49.6zm-262.7-765.3c-27 0-49 22-49 49.1v666.6c0 27.1 22 49.1 49 49.1h262.7c27 0 49-22 49-49.1v-666.6c0-27.1-22-49.1-49-49.1zm261.1 762.7h-259.6c-26.8 0-48.5-21.7-48.5-48.4v-663.8c0-26.7 21.7-48.4 48.5-48.4h259.6c26.8 0 48.5 21.7 48.5 48.4v663.8c0 26.7-21.7 48.4-48.5 48.4zm-259.6-760.1c-26.5 0-48 21.5-48 47.9v663.8c0 26.4 21.5 47.9 48 47.9h259.6c26.5 0 48-21.5 48-47.9v-663.8c0-26.4-21.5-47.9-48-47.9z"/>
		</g>
		<g id="&lt;Group&gt;" style="opacity: .5;mix-blend-mode: screen">
			<path id="&lt;Path&gt;" class="s1" d="m18.9 758.6c10.7 9.6 24.6 17 40.8 16.8l252.6-0.5c32.9-2 61.8-20 62.9-58.2 0-4.2 2.3 32-21.2 47.9-11.2 8-27.7 11.5-37.6 11.7-16.2 0.3-230.2 0.6-256.4 0-21.9-0.5-32.3-9.4-41.1-17.7z"/>
		</g>
		<g id="&lt;Group&gt;">
			<path id="&lt;Path&gt;" class="s3" d="m376.4 246.4v-82.9h1.2v82.9z"/>
			<path id="&lt;Path&gt;" class="s4" d="m377.6 246.4v-82.9l0.5 0.7c-0.3 6-0.2 75.6 0 81.5z"/>
		</g>
		<g id="&lt;Group&gt;">
			<path id="&lt;Path&gt;" class="s5" d="m3.6 219.2v-55.7h-1.2v55.7z"/>
			<path id="&lt;Path&gt;" class="s6" d="m2.4 219.2v-55.7l-0.5 0.7c0.3 6 0.2 48.4 0 54.3z"/>
			<path id="&lt;Path&gt;" class="s7" d="m4.9 219.3h-1.3v-55.8h1.3z"/>
		</g>
		<g id="&lt;Group&gt;">
			<path id="&lt;Path&gt;" class="s8" d="m3.6 289.2v-55.8h-1.2v55.8z"/>
			<path id="&lt;Path&gt;" class="s9" d="m2.4 289.2v-55.8l-0.5 0.7c0.3 6 0.2 48.4 0 54.3z"/>
			<path id="&lt;Path&gt;" class="s10" d="m4.9 289.2h-1.3v-55.8h1.3z"/>
		</g>
		<g id="&lt;Group&gt;">
			<path id="&lt;Path&gt;" class="s11" d="m3.6 127.7v-30.2h-1.2v30.2z"/>
			<path id="&lt;Path&gt;" class="s12" d="m2.4 127.7v-30.2l-0.5 0.7c0.3 5.9 0.2 22.9 0 28.8z"/>
			<path id="&lt;Path&gt;" class="s13" d="m4.9 127.7h-1.3v-30.2h1.3z"/>
		</g>
		<path id="&lt;Path&gt;" class="s0" d="m209 775.4h-36.7c-0.8 0-1.4 0-1.7 0.2l-1.6 0.7c-0.3 0.2 0.5 0.4 1.6 0.4h40c1.2 0 2-0.2 1.6-0.4l-1.6-0.7c-0.2-0.2-0.8-0.2-1.6-0.2z"/>
		<path id="&lt;Path&gt;" class="s0" d="m223.5 44.3h-67c-7.5 0-13.6-6.1-13.6-13.7 0-7.5 6.1-13.6 13.6-13.6h67c7.5 0 13.6 6.1 13.6 13.6 0 7.6-6.1 13.7-13.6 13.7z"/>
		<g id="&lt;Group&gt;">
			<path id="&lt;Path&gt;" class="s14" d="m225.6 30.6c0 3.3-2.6 6-5.9 6-3.3 0-6-2.7-6-6 0-3.3 2.7-5.9 6-5.9 3.3 0 5.9 2.6 5.9 5.9z"/>
			<path id="&lt;Mesh&gt;" class="s15" d="m215.8 34.6c0.6 0.6 1.3 1.1 2.2 1.3-0.2-1-0.7-1.8-0.8-2.9-0.9-0.2-2.2-0.4-2.8-0.7 0.3 0.8 0.7 1.6 1.4 2.3zm-1.4-2.3c0.6 0.3 1.9 0.5 2.8 0.7-0.1-1.9-0.2-3.9 0.1-5.8-0.9 0.2-1.7 0.3-2.5 0.7-0.7 1.4-0.9 3-0.4 4.4zm0.4-4.4c0.8-0.4 1.6-0.5 2.5-0.7 0.1-0.6 0.6-1.4 0.7-1.9-0.9 0.3-1.6 0.8-2.3 1.4q-0.5 0.5-0.9 1.2zm3.2 8c1.2 0.4 2.4 0.4 3.6 0 0.3-0.8 0.5-1.8 0.6-2.9-1.2 0.2-3.8 0.1-5 0 0.1 1.1 0.6 1.9 0.8 2.9zm-0.8-2.9c1.2 0.1 3.8 0.2 5 0 0.2-2.1 0.2-4.3-0.2-5.9-1.4-0.2-3.4-0.1-4.7 0.1-0.3 1.9-0.2 3.9-0.1 5.8zm0.1-5.8c1.3-0.2 3.3-0.3 4.7-0.1-0.1-0.5-0.2-1.3-0.4-1.7-1.2-0.4-2.4-0.4-3.6-0.1-0.1 0.5-0.6 1.3-0.7 1.9zm4.3 8.7c0.7-0.3 1.4-0.8 2-1.3 0.7-0.7 1.1-1.5 1.4-2.3-0.7 0.3-1.9 0.5-2.8 0.7-0.1 1.1-0.3 2.1-0.6 2.9zm0.6-2.9c0.9-0.2 2.1-0.4 2.8-0.7 0.4-1.4 0.3-3-0.5-4.4-0.7-0.4-1.5-0.6-2.5-0.8 0.4 1.6 0.4 3.8 0.2 5.9zm-0.2-5.9c1 0.2 1.8 0.4 2.5 0.8q-0.3-0.7-0.9-1.2c-0.6-0.6-1.3-1-2-1.3 0.2 0.4 0.3 1.2 0.4 1.7z"/>
			<path id="&lt;Path&gt;" class="s16" d="m216.3 30.6c0-1.8 1.5-3.4 3.4-3.4 1.9 0 3.4 1.6 3.4 3.4 0 1.9-1.5 3.4-3.4 3.4-1.9 0-3.4-1.5-3.4-3.4z"/>
			<g id="Camera 1 ">
				<path id="&lt;Path&gt;" class="s17" d="m222.7 30.6c0 1.7-1.4 3-3 3-1.7 0-3-1.3-3-3 0-1.6 1.3-2.9 3-2.9 1.6 0 3 1.3 3 2.9z"/>
				<path id="&lt;Path&gt;" class="s18" d="m222.7 30.6c0 1.7-1.4 3-3 3-1.7 0-3-1.3-3-3 0-1.6 1.3-2.9 3-2.9 1.6 0 3 1.3 3 2.9z"/>
			</g>
			<path id="&lt;Path&gt;" class="s19" d="m222.4 32.2c0-0.6-0.5-1.1-1.1-1.1-0.6 0-1 0.5-1 1.1 0 0.6 0.4 1 1 1 0.6 0 1.1-0.4 1.1-1z"/>
		</g>
	</g>
</svg>