<svg xmlns="http://www.w3.org/2000/svg" xmlns:xlink="http://www.w3.org/1999/xlink" style="margin:auto;background:#1e2425;display:block;z-index:1;position:relative" width="1920" height="945" preserveAspectRatio="xMidYMid" viewBox="0 0 1920 945">
<g transform="translate(960,472.5) scale(1,1) translate(-960,-472.5)"><defs>
  <path id="path-n1x88pqojq-1" d="M-35 -35L35 -35L35 35L-35 35Z" fill="none" stroke="inherit" stroke-width="4.333333333333334" transform="scale(0.3)"></path>
  <path id="path-n1x88pqojq-2" d="M0 -37A37 37 0 0 1 0 37A37 37 0 0 1 0 -37" fill="none" stroke="inherit" stroke-width="4.333333333333334" transform="scale(0.3)"></path>
  <path id="path-n1x88pqojq-3" d="M0 -34.641L40 34.641L-40 34.641Z" fill="none" stroke="inherit" stroke-width="4.333333333333334" transform="scale(0.3)"></path>
</defs><path id="path0" d="M 27.641656471968663 458.96121627906797
c 0 19.23585623332991 -4.706645674112637 5.525192747871357 -10.231838421983994 5.525192747871357
S 7.177979628000674 478.1970725123979 7.177979628000674 458.96121627906797
s 4.706645674112637 -5.525192747871357 10.231838421983994 -5.525192747871357
S 27.641656471968663 439.72536004573806 27.641656471968663 458.96121627906797
z" fill="none" stroke="none"></path>
<use xlink:href="#path-n1x88pqojq-2" x="0" y="0" stroke="#0099e5">
  <animateMotion begin="-0.23929368947710028s" dur="10s" keyPoints="1;0" keyTimes="0;1" repeatCount="indefinite" calcMode="linear">
    <mpath xlink:href="#path0"></mpath>
  </animateMotion>
</use><path id="path1" d="M 88.97831920800314 53.611105059048626
c 0 62.03685070787627 -15.179229428522916 17.81909541609212 -32.998324844615034 17.81909541609212
S 22.981669518773067 115.6479557669249 22.981669518773067 53.611105059048626
s 15.179229428522916 -17.81909541609212 32.998324844615034 -17.81909541609212
S 88.97831920800314 -8.425745648827643 88.97831920800314 53.611105059048626
z" fill="none" stroke="none"></path>
<use xlink:href="#path-n1x88pqojq-2" x="0" y="0" stroke="#ff4c4c">
  <animateMotion begin="-8.688982644738875s" dur="10s" keyPoints="0;1" keyTimes="0;1" repeatCount="indefinite" calcMode="linear">
    <mpath xlink:href="#path1"></mpath>
  </animateMotion>
</use><path id="path2" d="M 124.73374369118233 842.4227712767088
c 0 30.020934811920842 -7.345547879512545 8.62303446725386 -15.968582346766404 8.62303446725386
S 92.7965789976495 872.4437060886296 92.7965789976495 842.4227712767088
s 7.345547879512545 -8.62303446725386 15.968582346766404 -8.62303446725386
S 124.73374369118233 812.401836464788 124.73374369118233 842.4227712767088
z" fill="none" stroke="none"></path>
<use xlink:href="#path-n1x88pqojq-2" x="0" y="0" stroke="#ff4c4c">
  <animateMotion begin="-6.474745368757864s" dur="10s" keyPoints="1;0" keyTimes="0;1" repeatCount="indefinite" calcMode="linear">
    <mpath xlink:href="#path2"></mpath>
  </animateMotion>
</use><path id="path3" d="M 152.87575424562647 218.4841780447076
c 0 59.740105612935714 -14.617259884016184 17.15939203775813 -31.776651921774317 17.15939203775813
S 89.32245040207783 278.2242836576433 89.32245040207783 218.4841780447076
s 14.617259884016184 -17.15939203775813 31.776651921774317 -17.15939203775813
S 152.87575424562647 158.74407243177188 152.87575424562647 218.4841780447076
z" fill="none" stroke="none"></path>
<use xlink:href="#path-n1x88pqojq-2" x="0" y="0" stroke="#34bf49">
  <animateMotion begin="-7.2138207362232425s" dur="10s" keyPoints="1;0" keyTimes="0;1" repeatCount="indefinite" calcMode="linear">
    <mpath xlink:href="#path3"></mpath>
  </animateMotion>
</use><path id="path4" d="M 175.4115575374904 492.48822626077464
c 0 60.39027931199531 -14.776344938041404 17.34614405770078 -32.12248899574219 17.34614405770078
S 111.16657954600605 552.87850557277 111.16657954600605 492.48822626077464
s 14.776344938041404 -17.34614405770078 32.12248899574219 -17.34614405770078
S 175.4115575374904 432.09794694877934 175.4115575374904 492.48822626077464
z" fill="none" stroke="none"></path>
<use xlink:href="#path-n1x88pqojq-3" x="0" y="0" stroke="#ff4c4c">
  <animateMotion begin="-8.030552022439672s" dur="10s" keyPoints="0;1" keyTimes="0;1" repeatCount="indefinite" calcMode="linear">
    <mpath xlink:href="#path4"></mpath>
  </animateMotion>
</use><path id="path5" d="M 198.1900416740993 110.25531687783679
c 0 49.23253062060204 -12.046257492274966 14.141258795279311 -26.187516287554278 14.141258795279311
S 145.81500909899074 159.48784749843884 145.81500909899074 110.25531687783679
s 12.046257492274966 -14.141258795279311 26.187516287554278 -14.141258795279311
S 198.1900416740993 61.02278625723475 198.1900416740993 110.25531687783679
z" fill="none" stroke="none"></path>
<use xlink:href="#path-n1x88pqojq-1" x="0" y="0" stroke="#ff4c4c">
  <animateMotion begin="-0.4441247702691631s" dur="10s" keyPoints="0;1" keyTimes="0;1" repeatCount="indefinite" calcMode="linear">
    <mpath xlink:href="#path5"></mpath>
  </animateMotion>
</use><path id="path6" d="M 215.915924111135 448.52832081055385
c 0 30.17874910675048 -7.3841620154814995 8.668364105130458 -16.052526120611958 8.668364105130458
S 183.8108718699111 478.70706991730435 183.8108718699111 448.52832081055385
s 7.3841620154814995 -8.668364105130458 16.052526120611958 -8.668364105130458
S 215.915924111135 418.34957170380335 215.915924111135 448.52832081055385
z" fill="none" stroke="none"></path>
<use xlink:href="#path-n1x88pqojq-2" x="0" y="0" stroke="#ff4c4c">
  <animateMotion begin="-5.477352103995214s" dur="10s" keyPoints="1;0" keyTimes="0;1" repeatCount="indefinite" calcMode="linear">
    <mpath xlink:href="#path6"></mpath>
  </animateMotion>
</use><path id="path7" d="M 239.89366560829177 839.7089008295122
c 0 19.474475731299687 -4.765031295956306 5.59373239090523 -10.358763686861536 5.59373239090523
S 219.17613823456873 859.1833765608119 219.17613823456873 839.7089008295122
s 4.765031295956306 -5.59373239090523 10.358763686861536 -5.59373239090523
S 239.89366560829177 820.2344250982126 239.89366560829177 839.7089008295122
z" fill="none" stroke="none"></path>
<use xlink:href="#path-n1x88pqojq-2" x="0" y="0" stroke="#0099e5">
  <animateMotion begin="-3.471135183160754s" dur="10s" keyPoints="0;1" keyTimes="0;1" repeatCount="indefinite" calcMode="linear">
    <mpath xlink:href="#path7"></mpath>
  </animateMotion>
</use><path id="path8" d="M 274.76811297017 49.85452110737353
c 0 25.24525122786847 -6.17702955575505 7.251295565451582 -13.428325121206633 7.251295565451582
S 247.91146272775677 75.099772335242 247.91146272775677 49.85452110737353
s 6.17702955575505 -7.251295565451582 13.428325121206633 -7.251295565451582
S 274.76811297017 24.60926987950506 274.76811297017 49.85452110737353
z" fill="none" stroke="none"></path>
<use xlink:href="#path-n1x88pqojq-1" x="0" y="0" stroke="#ff4c4c">
  <animateMotion begin="-3.1423204650899206s" dur="10s" keyPoints="0;1" keyTimes="0;1" repeatCount="indefinite" calcMode="linear">
    <mpath xlink:href="#path8"></mpath>
  </animateMotion>
</use><path id="path9" d="M 319.81246864271554 40.79507955454021
c 0 35.857792230047814 -8.77371512011808 10.299578619269052 -19.073293739387132 10.299578619269052
S 281.6658811639413 76.65287178458803 281.6658811639413 40.79507955454021
s 8.77371512011808 -10.299578619269052 19.073293739387132 -10.299578619269052
S 319.81246864271554 4.937287324492395 319.81246864271554 40.79507955454021
z" fill="none" stroke="none"></path>
<use xlink:href="#path-n1x88pqojq-3" x="0" y="0" stroke="#ff4c4c">
  <animateMotion begin="-1.7762969027803366s" dur="10s" keyPoints="0;1" keyTimes="0;1" repeatCount="indefinite" calcMode="linear">
    <mpath xlink:href="#path9"></mpath>
  </animateMotion>
</use><path id="path10" d="M 352.153400233713 383.002146979804
c 0 28.79651103450368 -7.045954827591325 8.271338275868079 -15.317293103459404 8.271338275868079
S 321.5188140267942 411.7986580143077 321.5188140267942 383.002146979804
s 7.045954827591325 -8.271338275868079 15.317293103459404 -8.271338275868079
S 352.153400233713 354.20563594530034 352.153400233713 383.002146979804
z" fill="none" stroke="none"></path>
<use xlink:href="#path-n1x88pqojq-2" x="0" y="0" stroke="#ff4c4c">
  <animateMotion begin="-8.482987821358766s" dur="10s" keyPoints="1;0" keyTimes="0;1" repeatCount="indefinite" calcMode="linear">
    <mpath xlink:href="#path10"></mpath>
  </animateMotion>
</use><path id="path11" d="M 385.7868103249452 106.01241393780735
c 0 55.300303350705974 -13.530925287938695 15.884129685841078 -29.415054973779775 15.884129685841078
S 326.95670037738563 161.31271728851334 326.95670037738563 106.01241393780735
s 13.530925287938695 -15.884129685841078 29.415054973779775 -15.884129685841078
S 385.7868103249452 50.71211058710138 385.7868103249452 106.01241393780735
z" fill="none" stroke="none"></path>
<use xlink:href="#path-n1x88pqojq-2" x="0" y="0" stroke="#0099e5">
  <animateMotion begin="-7.123068665562197s" dur="10s" keyPoints="1;0" keyTimes="0;1" repeatCount="indefinite" calcMode="linear">
    <mpath xlink:href="#path11"></mpath>
  </animateMotion>
</use><path id="path12" d="M 394.09076299244407 887.4002479864063
c 0 46.60059155431847 -11.40227240158856 13.385276297517008 -24.787548699105567 13.385276297517008
S 344.5156655942329 934.0008395407248 344.5156655942329 887.4002479864063
s 11.40227240158856 -13.385276297517008 24.787548699105567 -13.385276297517008
S 394.09076299244407 840.7996564320878 394.09076299244407 887.4002479864063
z" fill="none" stroke="none"></path>
<use xlink:href="#path-n1x88pqojq-1" x="0" y="0" stroke="#34bf49">
  <animateMotion begin="-8.596316904303386s" dur="10s" keyPoints="1;0" keyTimes="0;1" repeatCount="indefinite" calcMode="linear">
    <mpath xlink:href="#path12"></mpath>
  </animateMotion>
</use><path id="path13" d="M 432.8046767355904 261.92600832920954
c 0 27.269262526363548 -6.672266362833633 7.832660512891657 -14.50492687572529 7.832660512891657
S 403.79482298413984 289.1952708555731 403.79482298413984 261.92600832920954
s 6.672266362833633 -7.832660512891657 14.50492687572529 -7.832660512891657
S 432.8046767355904 234.656745802846 432.8046767355904 261.92600832920954
z" fill="none" stroke="none"></path>
<use xlink:href="#path-n1x88pqojq-3" x="0" y="0" stroke="#0099e5">
  <animateMotion begin="-6.53706452526535s" dur="10s" keyPoints="1;0" keyTimes="0;1" repeatCount="indefinite" calcMode="linear">
    <mpath xlink:href="#path13"></mpath>
  </animateMotion>
</use><path id="path14" d="M 453.95941529860795 740.8482234980291
c 0 38.62141322672815 -9.449920257603695 11.093384650230428 -20.543304907834123 11.093384650230428
S 412.8728054829397 779.4696367247573 412.8728054829397 740.8482234980291
s 9.449920257603695 -11.093384650230428 20.543304907834123 -11.093384650230428
S 453.95941529860795 702.226810271301 453.95941529860795 740.8482234980291
z" fill="none" stroke="none"></path>
<use xlink:href="#path-n1x88pqojq-1" x="0" y="0" stroke="#0099e5">
  <animateMotion begin="-4.879652421595361s" dur="10s" keyPoints="0;1" keyTimes="0;1" repeatCount="indefinite" calcMode="linear">
    <mpath xlink:href="#path14"></mpath>
  </animateMotion>
</use><path id="path15" d="M 507.79955136060534 488.2589051964039
c 0 47.20677038770166 -11.55059275443764 13.55939149433984 -25.10998424877748 13.55939149433984
S 457.57958286305035 535.4656755841055 457.57958286305035 488.2589051964039
s 11.55059275443764 -13.55939149433984 25.10998424877748 -13.55939149433984
S 507.79955136060534 441.0521348087022 507.79955136060534 488.2589051964039
z" fill="none" stroke="none"></path>
<use xlink:href="#path-n1x88pqojq-2" x="0" y="0" stroke="#ff4c4c">
  <animateMotion begin="-6.037898163584067s" dur="10s" keyPoints="1;0" keyTimes="0;1" repeatCount="indefinite" calcMode="linear">
    <mpath xlink:href="#path15"></mpath>
  </animateMotion>
</use><path id="path16" d="M 508.0554505662916 625.7343029315125
c 0 22.009249411928852 -5.3852418773868465 6.321805682149777 -11.707047559536623 6.321805682149777
S 484.6413554472183 647.7435523434414 484.6413554472183 625.7343029315125
s 5.3852418773868465 -6.321805682149777 11.707047559536623 -6.321805682149777
S 508.0554505662916 603.7250535195836 508.0554505662916 625.7343029315125
z" fill="none" stroke="none"></path>
<use xlink:href="#path-n1x88pqojq-2" x="0" y="0" stroke="#0099e5">
  <animateMotion begin="-3.7245862717385414s" dur="10s" keyPoints="1;0" keyTimes="0;1" repeatCount="indefinite" calcMode="linear">
    <mpath xlink:href="#path16"></mpath>
  </animateMotion>
</use><path id="path17" d="M 543.0704305337778 469.912284561246
c 0 54.53440189202448 -13.343523867197478 15.664136713666608 -29.007660580864083 15.664136713666608
S 485.05510937204957 524.4466864532704 485.05510937204957 469.912284561246
s 13.343523867197478 -15.664136713666608 29.007660580864083 -15.664136713666608
S 543.0704305337778 415.3778826692215 543.0704305337778 469.912284561246
z" fill="none" stroke="none"></path>
<use xlink:href="#path-n1x88pqojq-1" x="0" y="0" stroke="#ff4c4c">
  <animateMotion begin="-2.113846957683869s" dur="10s" keyPoints="1;0" keyTimes="0;1" repeatCount="indefinite" calcMode="linear">
    <mpath xlink:href="#path17"></mpath>
  </animateMotion>
</use><path id="path18" d="M 582.2489453415976 70.45680227718049
c 0 41.961879857433175 -10.267268475754923 12.052880384581869 -22.320148860336793 12.052880384581869
S 537.6086476209241 112.41868213461366 537.6086476209241 70.45680227718049
s 10.267268475754923 -12.052880384581869 22.320148860336793 -12.052880384581869
S 582.2489453415976 28.49492241974731 582.2489453415976 70.45680227718049
z" fill="none" stroke="none"></path>
<use xlink:href="#path-n1x88pqojq-2" x="0" y="0" stroke="#34bf49">
  <animateMotion begin="-4.9991715105902585s" dur="10s" keyPoints="0;1" keyTimes="0;1" repeatCount="indefinite" calcMode="linear">
    <mpath xlink:href="#path18"></mpath>
  </animateMotion>
</use><path id="path19" d="M 609.5683329582803 210.15717542045098
c 0 32.85292802522339 -8.038482389150403 9.436479326393952 -17.474961715544353 9.436479326393952
S 574.6184095271915 243.01010344567436 574.6184095271915 210.15717542045098
s 8.038482389150403 -9.436479326393952 17.474961715544353 -9.436479326393952
S 609.5683329582803 177.3042473952276 609.5683329582803 210.15717542045098
z" fill="none" stroke="none"></path>
<use xlink:href="#path-n1x88pqojq-1" x="0" y="0" stroke="#0099e5">
  <animateMotion begin="-5.7609224710687545s" dur="10s" keyPoints="1;0" keyTimes="0;1" repeatCount="indefinite" calcMode="linear">
    <mpath xlink:href="#path19"></mpath>
  </animateMotion>
</use><path id="path20" d="M 645.1591185916831 859.7864310373637
c 0 51.22219318532246 -12.533089821940601 14.712757617060708 -27.24584743900131 14.712757617060708
S 590.6674237136805 911.0086242226862 590.6674237136805 859.7864310373637
s 12.533089821940601 -14.712757617060708 27.24584743900131 -14.712757617060708
S 645.1591185916831 808.5642378520413 645.1591185916831 859.7864310373637
z" fill="none" stroke="none"></path>
<use xlink:href="#path-n1x88pqojq-2" x="0" y="0" stroke="#34bf49">
  <animateMotion begin="-3.8506248215456895s" dur="10s" keyPoints="1;0" keyTimes="0;1" repeatCount="indefinite" calcMode="linear">
    <mpath xlink:href="#path20"></mpath>
  </animateMotion>
</use><path id="path21" d="M 664.6712758069528 825.919030677529
c 0 54.50090318860781 -13.33532737593595 15.654514745663946 -28.989842121599896 15.654514745663946
S 606.6915915637531 880.4199338661368 606.6915915637531 825.919030677529
s 13.33532737593595 -15.654514745663946 28.989842121599896 -15.654514745663946
S 664.6712758069528 771.4181274889212 664.6712758069528 825.919030677529
z" fill="none" stroke="none"></path>
<use xlink:href="#path-n1x88pqojq-3" x="0" y="0" stroke="#0099e5">
  <animateMotion begin="-1.6673962215218152s" dur="10s" keyPoints="0;1" keyTimes="0;1" repeatCount="indefinite" calcMode="linear">
    <mpath xlink:href="#path21"></mpath>
  </animateMotion>
</use><path id="path22" d="M 688.6792768097267 289.5389295403544
c 0 52.67323845258276 -12.888132812865992 15.129547215103559 -28.01768002796955 15.129547215103559
S 632.6439167537877 342.21216799293717 632.6439167537877 289.5389295403544
s 12.888132812865992 -15.129547215103559 28.01768002796955 -15.129547215103559
S 688.6792768097267 236.86569108777164 688.6792768097267 289.5389295403544
z" fill="none" stroke="none"></path>
<use xlink:href="#path-n1x88pqojq-2" x="0" y="0" stroke="#0099e5">
  <animateMotion begin="-7.904372891877262s" dur="10s" keyPoints="0;1" keyTimes="0;1" repeatCount="indefinite" calcMode="linear">
    <mpath xlink:href="#path22"></mpath>
  </animateMotion>
</use><path id="path23" d="M 711.6657420301638 134.41337773850023
c 0 34.589701493303046 -8.463437599425212 9.9353397906296 -18.39877739005481 9.9353397906296
S 674.8681872500542 169.00307923180327 674.8681872500542 134.41337773850023
s 8.463437599425212 -9.9353397906296 18.39877739005481 -9.9353397906296
S 711.6657420301638 99.82367624519719 711.6657420301638 134.41337773850023
z" fill="none" stroke="none"></path>
<use xlink:href="#path-n1x88pqojq-1" x="0" y="0" stroke="#ff4c4c">
  <animateMotion begin="-1.2893371937842124s" dur="10s" keyPoints="0;1" keyTimes="0;1" repeatCount="indefinite" calcMode="linear">
    <mpath xlink:href="#path23"></mpath>
  </animateMotion>
</use><path id="path24" d="M 759.3376450456367 570.6425535994173
c 0 34.29085991853619 -8.390316788578003 9.849502317026355 -18.239819105604358 9.849502317026355
S 722.8580068344279 604.9334135179535 722.8580068344279 570.6425535994173
s 8.390316788578003 -9.849502317026355 18.239819105604358 -9.849502317026355
S 759.3376450456367 536.3516936808811 759.3376450456367 570.6425535994173
z" fill="none" stroke="none"></path>
<use xlink:href="#path-n1x88pqojq-3" x="0" y="0" stroke="#0099e5">
  <animateMotion begin="-1.243611503033184s" dur="10s" keyPoints="1;0" keyTimes="0;1" repeatCount="indefinite" calcMode="linear">
    <mpath xlink:href="#path24"></mpath>
  </animateMotion>
</use><path id="path25" d="M 778.9296461024427 57.007179676531194
c 0 26.029373100776734 -6.368889162956009 7.476522060861403 -13.845411223817411 7.476522060861403
S 751.2388236548078 83.03655277730793 751.2388236548078 57.007179676531194
s 6.368889162956009 -7.476522060861403 13.845411223817411 -7.476522060861403
S 778.9296461024427 30.97780657575446 778.9296461024427 57.007179676531194
z" fill="none" stroke="none"></path>
<use xlink:href="#path-n1x88pqojq-3" x="0" y="0" stroke="#34bf49">
  <animateMotion begin="-0.3775590153192043s" dur="10s" keyPoints="1;0" keyTimes="0;1" repeatCount="indefinite" calcMode="linear">
    <mpath xlink:href="#path25"></mpath>
  </animateMotion>
</use><path id="path26" d="M 823.0322112045848 261.8633535787264
c 0 59.05881026176939 -14.450559957666975 16.96370081986993 -31.414260777536906 16.96370081986993
S 760.2036896495109 320.9221638404958 760.2036896495109 261.8633535787264
s 14.450559957666975 -16.96370081986993 31.414260777536906 -16.96370081986993
S 823.0322112045848 202.804543316957 823.0322112045848 261.8633535787264
z" fill="none" stroke="none"></path>
<use xlink:href="#path-n1x88pqojq-2" x="0" y="0" stroke="#0099e5">
  <animateMotion begin="-3.760107671666446s" dur="10s" keyPoints="1;0" keyTimes="0;1" repeatCount="indefinite" calcMode="linear">
    <mpath xlink:href="#path26"></mpath>
  </animateMotion>
</use><path id="path27" d="M 850.7880226231018 491.78254901945604
c 0 44.989558183113076 -11.008083385229792 12.922532669617585 -23.930616054847377 12.922532669617585
S 802.926790513407 536.7721072025691 802.926790513407 491.78254901945604
s 11.008083385229792 -12.922532669617585 23.930616054847377 -12.922532669617585
S 850.7880226231018 446.79299083634294 850.7880226231018 491.78254901945604
z" fill="none" stroke="none"></path>
<use xlink:href="#path-n1x88pqojq-2" x="0" y="0" stroke="#34bf49">
  <animateMotion begin="-4.42353544429297s" dur="10s" keyPoints="1;0" keyTimes="0;1" repeatCount="indefinite" calcMode="linear">
    <mpath xlink:href="#path27"></mpath>
  </animateMotion>
</use><path id="path28" d="M 881.7340816663232 426.9285313655959
c 0 57.08577545941048 -13.967796123047242 16.396978057490244 -30.364774180537488 16.396978057490244
S 821.0045333052483 484.0143068250064 821.0045333052483 426.9285313655959
s 13.967796123047242 -16.396978057490244 30.364774180537488 -16.396978057490244
S 881.7340816663232 369.84275590618546 881.7340816663232 426.9285313655959
z" fill="none" stroke="none"></path>
<use xlink:href="#path-n1x88pqojq-2" x="0" y="0" stroke="#ff4c4c">
  <animateMotion begin="-9.349163008249759s" dur="10s" keyPoints="1;0" keyTimes="0;1" repeatCount="indefinite" calcMode="linear">
    <mpath xlink:href="#path28"></mpath>
  </animateMotion>
</use><path id="path29" d="M 899.5852994689791 246.76360790890806
c 0 32.32480790543225 -7.909261508775976 9.28478524943267 -17.194046758208646 9.28478524943267
S 865.1972059525618 279.0884158143403 865.1972059525618 246.76360790890806
s 7.909261508775976 -9.28478524943267 17.194046758208646 -9.28478524943267
S 899.5852994689791 214.43880000347582 899.5852994689791 246.76360790890806
z" fill="none" stroke="none"></path>
<use xlink:href="#path-n1x88pqojq-2" x="0" y="0" stroke="#34bf49">
  <animateMotion begin="-0.6402672717769065s" dur="10s" keyPoints="0;1" keyTimes="0;1" repeatCount="indefinite" calcMode="linear">
    <mpath xlink:href="#path29"></mpath>
  </animateMotion>
</use><path id="path30" d="M 931.5270951388602 481.9599251199266
c 0 62.48182634335735 -15.288106445715094 17.946907566709026 -33.23501401242412 17.946907566709026
S 865.0570671140119 544.4417514632839 865.0570671140119 481.9599251199266
s 15.288106445715094 -17.946907566709026 33.23501401242412 -17.946907566709026
S 931.5270951388602 419.47809877656925 931.5270951388602 481.9599251199266
z" fill="none" stroke="none"></path>
<use xlink:href="#path-n1x88pqojq-2" x="0" y="0" stroke="#34bf49">
  <animateMotion begin="-9.267399676727528s" dur="10s" keyPoints="1;0" keyTimes="0;1" repeatCount="indefinite" calcMode="linear">
    <mpath xlink:href="#path30"></mpath>
  </animateMotion>
</use><path id="path31" d="M 944.906299469162 457.1285334268228
c 0 21.072707876547906 -5.15608809745321 6.052799070923334 -11.208887168376545 6.052799070923334
S 922.4885251324089 478.2012413033707 922.4885251324089 457.1285334268228
s 5.15608809745321 -6.052799070923334 11.208887168376545 -6.052799070923334
S 944.906299469162 436.0558255502749 944.906299469162 457.1285334268228
z" fill="none" stroke="none"></path>
<use xlink:href="#path-n1x88pqojq-3" x="0" y="0" stroke="#34bf49">
  <animateMotion begin="-9.755006597591592s" dur="10s" keyPoints="1;0" keyTimes="0;1" repeatCount="indefinite" calcMode="linear">
    <mpath xlink:href="#path31"></mpath>
  </animateMotion>
</use><path id="path32" d="M 984.2384670443791 471.26024187072267
c 0 42.57654624241713 -10.417665569953126 12.229433495162366 -22.64709906511549 12.229433495162366
S 938.9442689141481 513.8367881131398 938.9442689141481 471.26024187072267
s 10.417665569953126 -12.229433495162366 22.64709906511549 -12.229433495162366
S 984.2384670443791 428.68369562830554 984.2384670443791 471.26024187072267
z" fill="none" stroke="none"></path>
<use xlink:href="#path-n1x88pqojq-2" x="0" y="0" stroke="#ff4c4c">
  <animateMotion begin="-3.7988785601098174s" dur="10s" keyPoints="0;1" keyTimes="0;1" repeatCount="indefinite" calcMode="linear">
    <mpath xlink:href="#path32"></mpath>
  </animateMotion>
</use><path id="path33" d="M 1010.0614154872342 198.70799379830885
c 0 28.727511565239965 -7.029071978728927 8.251519279377437 -15.280591258106364 8.251519279377437
S 979.5002329710214 227.43550536354883 979.5002329710214 198.70799379830885
s 7.029071978728927 -8.251519279377437 15.280591258106364 -8.251519279377437
S 1010.0614154872342 169.98048223306887 1010.0614154872342 198.70799379830885
z" fill="none" stroke="none"></path>
<use xlink:href="#path-n1x88pqojq-2" x="0" y="0" stroke="#ff4c4c">
  <animateMotion begin="-2.013651572032531s" dur="10s" keyPoints="1;0" keyTimes="0;1" repeatCount="indefinite" calcMode="linear">
    <mpath xlink:href="#path33"></mpath>
  </animateMotion>
</use><path id="path34" d="M 1035.8411572873767 688.5725271400884
c 0 55.23197946373455 -13.514207741126537 15.864504739583326 -29.378712480709865 15.864504739583326
S 977.0837323259569 743.8045066038229 977.0837323259569 688.5725271400884
s 13.514207741126537 -15.864504739583326 29.378712480709865 -15.864504739583326
S 1035.8411572873767 633.3405476763538 1035.8411572873767 688.5725271400884
z" fill="none" stroke="none"></path>
<use xlink:href="#path-n1x88pqojq-2" x="0" y="0" stroke="#0099e5">
  <animateMotion begin="-4.110323464649104s" dur="10s" keyPoints="1;0" keyTimes="0;1" repeatCount="indefinite" calcMode="linear">
    <mpath xlink:href="#path34"></mpath>
  </animateMotion>
</use><path id="path35" d="M 1071.4101945714872 772.6977276396358
c 0 53.80348893410131 -13.164683462599255 15.454193630007824 -28.61887709260708 15.454193630007824
S 1014.1724403862729 826.5012165737371 1014.1724403862729 772.6977276396358
s 13.164683462599255 -15.454193630007824 28.61887709260708 -15.454193630007824
S 1071.4101945714872 718.8942387055345 1071.4101945714872 772.6977276396358
z" fill="none" stroke="none"></path>
<use xlink:href="#path-n1x88pqojq-1" x="0" y="0" stroke="#34bf49">
  <animateMotion begin="-4.537207569536275s" dur="10s" keyPoints="0;1" keyTimes="0;1" repeatCount="indefinite" calcMode="linear">
    <mpath xlink:href="#path35"></mpath>
  </animateMotion>
</use><path id="path36" d="M 1116.9376665615705 840.1908731200867
c 0 61.54393919009429 -15.058623418852857 17.677514448218574 -32.736137867071434 17.677514448218574
S 1051.4653908274277 901.734812310181 1051.4653908274277 840.1908731200867
s 15.058623418852857 -17.677514448218574 32.736137867071434 -17.677514448218574
S 1116.9376665615705 778.6469339299924 1116.9376665615705 840.1908731200867
z" fill="none" stroke="none"></path>
<use xlink:href="#path-n1x88pqojq-1" x="0" y="0" stroke="#0099e5">
  <animateMotion begin="-1.4140567849143593s" dur="10s" keyPoints="1;0" keyTimes="0;1" repeatCount="indefinite" calcMode="linear">
    <mpath xlink:href="#path36"></mpath>
  </animateMotion>
</use><path id="path37" d="M 1129.3391860317988 461.33714273909123
c 0 31.167388415609295 -7.6260631229682305 8.952334970440969 -16.5783980934092 8.952334970440969
S 1096.1823898449802 492.50453115470054 1096.1823898449802 461.33714273909123
s 7.6260631229682305 -8.952334970440969 16.5783980934092 -8.952334970440969
S 1129.3391860317988 430.1697543234819 1129.3391860317988 461.33714273909123
z" fill="none" stroke="none"></path>
<use xlink:href="#path-n1x88pqojq-3" x="0" y="0" stroke="#ff4c4c">
  <animateMotion begin="-1.3394123826782467s" dur="10s" keyPoints="0;1" keyTimes="0;1" repeatCount="indefinite" calcMode="linear">
    <mpath xlink:href="#path37"></mpath>
  </animateMotion>
</use><path id="path38" d="M 1139.4611381619516 141.89879999158137
c 0 33.90288841577477 -8.295387591093824 9.738063693892752 -18.033451284986576 9.738063693892752
S 1103.3942355919785 175.80168840735615 1103.3942355919785 141.89879999158137
s 8.295387591093824 -9.738063693892752 18.033451284986576 -9.738063693892752
S 1139.4611381619516 107.9959115758066 1139.4611381619516 141.89879999158137
z" fill="none" stroke="none"></path>
<use xlink:href="#path-n1x88pqojq-1" x="0" y="0" stroke="#ff4c4c">
  <animateMotion begin="-1.8745168534088075s" dur="10s" keyPoints="1;0" keyTimes="0;1" repeatCount="indefinite" calcMode="linear">
    <mpath xlink:href="#path38"></mpath>
  </animateMotion>
</use><path id="path39" d="M 1196.4931820950396 510.3856571392033
c 0 60.266985971153744 -14.746177418473787 17.31073001299097 -32.05690743146476 17.31073001299097
S 1132.3793672321103 570.6526431103571 1132.3793672321103 510.3856571392033
s 14.746177418473787 -17.31073001299097 32.05690743146476 -17.31073001299097
S 1196.4931820950396 450.11867116804956 1196.4931820950396 510.3856571392033
z" fill="none" stroke="none"></path>
<use xlink:href="#path-n1x88pqojq-3" x="0" y="0" stroke="#0099e5">
  <animateMotion begin="-8.729781417117238s" dur="10s" keyPoints="0;1" keyTimes="0;1" repeatCount="indefinite" calcMode="linear">
    <mpath xlink:href="#path39"></mpath>
  </animateMotion>
</use><path id="path40" d="M 1216.365182218736 327.67055275259753
c 0 51.979445294140795 -12.71837491239615 14.930266201508527 -27.648641113904677 14.930266201508527
S 1161.0678999909267 379.64999804673835 1161.0678999909267 327.67055275259753
s 12.71837491239615 -14.930266201508527 27.648641113904677 -14.930266201508527
S 1216.365182218736 275.6911074584567 1216.365182218736 327.67055275259753
z" fill="none" stroke="none"></path>
<use xlink:href="#path-n1x88pqojq-3" x="0" y="0" stroke="#ff4c4c">
  <animateMotion begin="-9.97272103159085s" dur="10s" keyPoints="1;0" keyTimes="0;1" repeatCount="indefinite" calcMode="linear">
    <mpath xlink:href="#path40"></mpath>
  </animateMotion>
</use><path id="path41" d="M 1258.7683211950673 577.762875012579
c 0 49.74786285859587 -12.172349422847924 14.289279757256262 -26.461629180104186 14.289279757256262
S 1205.845062834859 627.5107378711749 1205.845062834859 577.762875012579
s 12.172349422847924 -14.289279757256262 26.461629180104186 -14.289279757256262
S 1258.7683211950673 528.0150121539831 1258.7683211950673 577.762875012579
z" fill="none" stroke="none"></path>
<use xlink:href="#path-n1x88pqojq-2" x="0" y="0" stroke="#0099e5">
  <animateMotion begin="-5.233437385776957s" dur="10s" keyPoints="1;0" keyTimes="0;1" repeatCount="indefinite" calcMode="linear">
    <mpath xlink:href="#path41"></mpath>
  </animateMotion>
</use><path id="path42" d="M 1279.1119357935197 700.9239456775188
c 0 58.13725941630294 -14.225074112499653 16.699000045108292 -30.924074157607944 16.699000045108292
S 1217.2637874783038 759.0612050938217 1217.2637874783038 700.9239456775188
s 14.225074112499653 -16.699000045108292 30.924074157607944 -16.699000045108292
S 1279.1119357935197 642.7866862612158 1279.1119357935197 700.9239456775188
z" fill="none" stroke="none"></path>
<use xlink:href="#path-n1x88pqojq-3" x="0" y="0" stroke="#34bf49">
  <animateMotion begin="-2.0843261130017376s" dur="10s" keyPoints="1;0" keyTimes="0;1" repeatCount="indefinite" calcMode="linear">
    <mpath xlink:href="#path42"></mpath>
  </animateMotion>
</use><path id="path43" d="M 1309.467213079567 844.3281453373164
c 0 53.16606516487299 -13.008718072256155 15.27110382395288 -28.279821896209036 15.27110382395288
S 1252.9075692871488 897.4942105021894 1252.9075692871488 844.3281453373164
s 13.008718072256155 -15.27110382395288 28.279821896209036 -15.27110382395288
S 1309.467213079567 791.1620801724434 1309.467213079567 844.3281453373164
z" fill="none" stroke="none"></path>
<use xlink:href="#path-n1x88pqojq-2" x="0" y="0" stroke="#ff4c4c">
  <animateMotion begin="-5.324207901226055s" dur="10s" keyPoints="0;1" keyTimes="0;1" repeatCount="indefinite" calcMode="linear">
    <mpath xlink:href="#path43"></mpath>
  </animateMotion>
</use><path id="path44" d="M 1327.2002278702796 93.37888837298365
c 0 63.87771974527361 -15.629654831290349 18.34785567151476 -33.97751050280511 18.34785567151476
S 1259.2452068646692 157.25660811825725 1259.2452068646692 93.37888837298365
s 15.629654831290349 -18.34785567151476 33.97751050280511 -18.34785567151476
S 1327.2002278702796 29.501168627710044 1327.2002278702796 93.37888837298365
z" fill="none" stroke="none"></path>
<use xlink:href="#path-n1x88pqojq-3" x="0" y="0" stroke="#ff4c4c">
  <animateMotion begin="-9.06601375883427s" dur="10s" keyPoints="1;0" keyTimes="0;1" repeatCount="indefinite" calcMode="linear">
    <mpath xlink:href="#path44"></mpath>
  </animateMotion>
</use><path id="path45" d="M 1352.2090277707164 87.13120623915917
c 0 46.86439339824084 -11.466819661271693 13.461049167579816 -24.92786882885151 13.461049167579816
S 1302.3532901130131 133.9955996374 1302.3532901130131 87.13120623915917
s 11.466819661271693 -13.461049167579816 24.92786882885151 -13.461049167579816
S 1352.2090277707164 40.26681284091833 1352.2090277707164 87.13120623915917
z" fill="none" stroke="none"></path>
<use xlink:href="#path-n1x88pqojq-2" x="0" y="0" stroke="#ff4c4c">
  <animateMotion begin="-6.256565048085512s" dur="10s" keyPoints="1;0" keyTimes="0;1" repeatCount="indefinite" calcMode="linear">
    <mpath xlink:href="#path45"></mpath>
  </animateMotion>
</use><path id="path46" d="M 1398.039498393884 872.0916723737225
c 0 58.78635751508715 -14.383895987734087 16.88544311603567 -31.26933910376976 16.88544311603567
S 1335.5008201863448 930.8780298888097 1335.5008201863448 872.0916723737225
s 14.383895987734087 -16.88544311603567 31.26933910376976 -16.88544311603567
S 1398.039498393884 813.3053148586354 1398.039498393884 872.0916723737225
z" fill="none" stroke="none"></path>
<use xlink:href="#path-n1x88pqojq-2" x="0" y="0" stroke="#ff4c4c">
  <animateMotion begin="-3.0209585950017437s" dur="10s" keyPoints="0;1" keyTimes="0;1" repeatCount="indefinite" calcMode="linear">
    <mpath xlink:href="#path46"></mpath>
  </animateMotion>
</use><path id="path47" d="M 1417.772186516278 730.1707160093366
c 0 45.45080160119482 -11.120940817313624 13.055017481194255 -24.17595829850788 13.055017481194255
S 1369.4202699192624 775.6215176105314 1369.4202699192624 730.1707160093366
s 11.120940817313624 -13.055017481194255 24.17595829850788 -13.055017481194255
S 1417.772186516278 684.7199144081418 1417.772186516278 730.1707160093366
z" fill="none" stroke="none"></path>
<use xlink:href="#path-n1x88pqojq-1" x="0" y="0" stroke="#34bf49">
  <animateMotion begin="-0.6018523142058174s" dur="10s" keyPoints="1;0" keyTimes="0;1" repeatCount="indefinite" calcMode="linear">
    <mpath xlink:href="#path47"></mpath>
  </animateMotion>
</use><path id="path48" d="M 1448.2156890453882 834.3365915003714
c 0 56.3384423230606 -13.784938015216953 16.182318539602512 -29.967256554819464 16.182318539602512
S 1388.2811759357494 890.6750338234319 1388.2811759357494 834.3365915003714
s 13.784938015216953 -16.182318539602512 29.967256554819464 -16.182318539602512
S 1448.2156890453882 777.9981491773108 1448.2156890453882 834.3365915003714
z" fill="none" stroke="none"></path>
<use xlink:href="#path-n1x88pqojq-2" x="0" y="0" stroke="#0099e5">
  <animateMotion begin="-0.6080617421519618s" dur="10s" keyPoints="1;0" keyTimes="0;1" repeatCount="indefinite" calcMode="linear">
    <mpath xlink:href="#path48"></mpath>
  </animateMotion>
</use><path id="path49" d="M 1469.015265594921 342.35024495841975
c 0 20.08008415629011 -4.913212080794388 5.7676837470194995 -10.680895827813888 5.7676837470194995
S 1447.6534739392932 362.4303291147099 1447.6534739392932 342.35024495841975
s 4.913212080794388 -5.7676837470194995 10.680895827813888 -5.7676837470194995
S 1469.015265594921 322.2701608021296 1469.015265594921 342.35024495841975
z" fill="none" stroke="none"></path>
<use xlink:href="#path-n1x88pqojq-3" x="0" y="0" stroke="#ff4c4c">
  <animateMotion begin="-1.754547468353771s" dur="10s" keyPoints="1;0" keyTimes="0;1" repeatCount="indefinite" calcMode="linear">
    <mpath xlink:href="#path49"></mpath>
  </animateMotion>
</use><path id="path50" d="M 1490.529130127741 471.0235307265252
c 0 26.691997152656686 -6.531020579905359 7.666850245975857 -14.197870825881216 7.666850245975857
S 1462.1333884759786 497.71552787918193 1462.1333884759786 471.0235307265252
s 6.531020579905359 -7.666850245975857 14.197870825881216 -7.666850245975857
S 1490.529130127741 444.3315335738685 1490.529130127741 471.0235307265252
z" fill="none" stroke="none"></path>
<use xlink:href="#path-n1x88pqojq-3" x="0" y="0" stroke="#34bf49">
  <animateMotion begin="-3.86158460107882s" dur="10s" keyPoints="0;1" keyTimes="0;1" repeatCount="indefinite" calcMode="linear">
    <mpath xlink:href="#path50"></mpath>
  </animateMotion>
</use><path id="path51" d="M 1526.0655226011022 645.048161304483
c 0 57.1889900456082 -13.993050755840303 16.42662480033427 -30.419675556174575 16.42662480033427
S 1465.2261714887532 702.2371513500912 1465.2261714887532 645.048161304483
s 13.993050755840303 -16.42662480033427 30.419675556174575 -16.42662480033427
S 1526.0655226011022 587.8591712588748 1526.0655226011022 645.048161304483
z" fill="none" stroke="none"></path>
<use xlink:href="#path-n1x88pqojq-3" x="0" y="0" stroke="#0099e5">
  <animateMotion begin="-6.546358767302101s" dur="10s" keyPoints="0;1" keyTimes="0;1" repeatCount="indefinite" calcMode="linear">
    <mpath xlink:href="#path51"></mpath>
  </animateMotion>
</use><path id="path52" d="M 1564.3272040975044 351.7573462456952
c 0 36.07217332730056 -8.826170069445881 10.36115616847995 -19.18732623792583 10.36115616847995
S 1525.9525516216527 387.82951957299576 1525.9525516216527 351.7573462456952
s 8.826170069445881 -10.36115616847995 19.18732623792583 -10.36115616847995
S 1564.3272040975044 315.68517291839464 1564.3272040975044 351.7573462456952
z" fill="none" stroke="none"></path>
<use xlink:href="#path-n1x88pqojq-2" x="0" y="0" stroke="#ff4c4c">
  <animateMotion begin="-9.701003573102447s" dur="10s" keyPoints="1;0" keyTimes="0;1" repeatCount="indefinite" calcMode="linear">
    <mpath xlink:href="#path52"></mpath>
  </animateMotion>
</use><path id="path53" d="M 1612.900575344681 682.6894019443065
c 0 63.57320740186674 -15.555146491946115 18.26038936011066 -33.815535852056776 18.26038936011066
S 1545.2695036405673 746.2626093461732 1545.2695036405673 682.6894019443065
s 15.555146491946115 -18.26038936011066 33.815535852056776 -18.26038936011066
S 1612.900575344681 619.1161945424398 1612.900575344681 682.6894019443065
z" fill="none" stroke="none"></path>
<use xlink:href="#path-n1x88pqojq-3" x="0" y="0" stroke="#0099e5">
  <animateMotion begin="-1.5019605348171905s" dur="10s" keyPoints="1;0" keyTimes="0;1" repeatCount="indefinite" calcMode="linear">
    <mpath xlink:href="#path53"></mpath>
  </animateMotion>
</use><path id="path54" d="M 1608.082438444158 451.2026754739809
c 0 19.53021042168948 -4.778668507434659 5.60974129133634 -10.388409798770999 5.60974129133634
S 1587.3056188466162 470.7328858956704 1587.3056188466162 451.2026754739809
s 4.778668507434659 -5.60974129133634 10.388409798770999 -5.60974129133634
S 1608.082438444158 431.6724650522914 1608.082438444158 451.2026754739809
z" fill="none" stroke="none"></path>
<use xlink:href="#path-n1x88pqojq-1" x="0" y="0" stroke="#34bf49">
  <animateMotion begin="-2.6005826059009896s" dur="10s" keyPoints="0;1" keyTimes="0;1" repeatCount="indefinite" calcMode="linear">
    <mpath xlink:href="#path54"></mpath>
  </animateMotion>
</use><path id="path55" d="M 1645.8295084939543 834.1559088545999
c 0 25.55221435081507 -6.252137553922836 7.339465824170286 -13.591603378093122 7.339465824170286
S 1618.646301737768 859.7081232054151 1618.646301737768 834.1559088545999
s 6.252137553922836 -7.339465824170286 13.591603378093122 -7.339465824170286
S 1645.8295084939543 808.6036945037848 1645.8295084939543 834.1559088545999
z" fill="none" stroke="none"></path>
<use xlink:href="#path-n1x88pqojq-3" x="0" y="0" stroke="#0099e5">
  <animateMotion begin="-2.018244901748998s" dur="10s" keyPoints="1;0" keyTimes="0;1" repeatCount="indefinite" calcMode="linear">
    <mpath xlink:href="#path55"></mpath>
  </animateMotion>
</use><path id="path56" d="M 1675.5292415614956 138.51880655893666
c 0 63.79452859015708 -15.609299548655454 18.32396033972597 -33.93325988838142 18.32396033972597
S 1607.6627217847329 202.31333514909375 1607.6627217847329 138.51880655893666
s 15.609299548655454 -18.32396033972597 33.93325988838142 -18.32396033972597
S 1675.5292415614956 74.72427796877957 1675.5292415614956 138.51880655893666
z" fill="none" stroke="none"></path>
<use xlink:href="#path-n1x88pqojq-2" x="0" y="0" stroke="#ff4c4c">
  <animateMotion begin="-9.991272328715052s" dur="10s" keyPoints="1;0" keyTimes="0;1" repeatCount="indefinite" calcMode="linear">
    <mpath xlink:href="#path56"></mpath>
  </animateMotion>
</use><path id="path57" d="M 1683.5565701407932 322.82950146460314
c 0 32.13807078968337 -7.863570512369334 9.231147992781393 -17.094718505150727 9.231147992781393
S 1649.3671331304918 354.9675722542865 1649.3671331304918 322.82950146460314
s 7.863570512369334 -9.231147992781393 17.094718505150727 -9.231147992781393
S 1683.5565701407932 290.6914306749198 1683.5565701407932 322.82950146460314
z" fill="none" stroke="none"></path>
<use xlink:href="#path-n1x88pqojq-2" x="0" y="0" stroke="#ff4c4c">
  <animateMotion begin="-3.1816924501655275s" dur="10s" keyPoints="0;1" keyTimes="0;1" repeatCount="indefinite" calcMode="linear">
    <mpath xlink:href="#path57"></mpath>
  </animateMotion>
</use><path id="path58" d="M 1728.2172163209145 609.4472194886873
c 0 29.211538726199503 -7.147504156410515 8.39054835752539 -15.538052513935906 8.39054835752539
S 1697.1411112930425 638.6587582148868 1697.1411112930425 609.4472194886873
s 7.147504156410515 -8.39054835752539 15.538052513935906 -8.39054835752539
S 1728.2172163209145 580.2356807624878 1728.2172163209145 609.4472194886873
z" fill="none" stroke="none"></path>
<use xlink:href="#path-n1x88pqojq-2" x="0" y="0" stroke="#ff4c4c">
  <animateMotion begin="-2.9408343411463767s" dur="10s" keyPoints="0;1" keyTimes="0;1" repeatCount="indefinite" calcMode="linear">
    <mpath xlink:href="#path58"></mpath>
  </animateMotion>
</use><path id="path59" d="M 1768.3277803854198 135.10650734670364
c 0 39.02039506297282 -9.547543472855049 11.207985815960278 -20.755529288815325 11.207985815960278
S 1726.8167218077892 174.12690240967646 1726.8167218077892 135.10650734670364
s 9.547543472855049 -11.207985815960278 20.755529288815325 -11.207985815960278
S 1768.3277803854198 96.08611228373081 1768.3277803854198 135.10650734670364
z" fill="none" stroke="none"></path>
<use xlink:href="#path-n1x88pqojq-1" x="0" y="0" stroke="#34bf49">
  <animateMotion begin="-3.9365220854016836s" dur="10s" keyPoints="1;0" keyTimes="0;1" repeatCount="indefinite" calcMode="linear">
    <mpath xlink:href="#path59"></mpath>
  </animateMotion>
</use><path id="path60" d="M 1795.2196118130141 793.9632321251535
c 0 50.03558228106038 -12.242748856004134 14.37192257009181 -26.614671426095946 14.37192257009181
S 1741.990268960822 843.9988144062138 1741.990268960822 793.9632321251535
s 12.242748856004134 -14.37192257009181 26.614671426095946 -14.37192257009181
S 1795.2196118130141 743.9276498440931 1795.2196118130141 793.9632321251535
z" fill="none" stroke="none"></path>
<use xlink:href="#path-n1x88pqojq-3" x="0" y="0" stroke="#ff4c4c">
  <animateMotion begin="-3.82965257308729s" dur="10s" keyPoints="1;0" keyTimes="0;1" repeatCount="indefinite" calcMode="linear">
    <mpath xlink:href="#path60"></mpath>
  </animateMotion>
</use><path id="path61" d="M 1819.4787914217231 54.84986092080755
c 0 39.01931142641166 -9.547278327739022 11.20767455865016 -20.754952886389184 11.20767455865016
S 1777.9688856489447 93.8691723472192 1777.9688856489447 54.84986092080755
s 9.547278327739022 -11.20767455865016 20.754952886389184 -11.20767455865016
S 1819.4787914217231 15.830549494395889 1819.4787914217231 54.84986092080755
z" fill="none" stroke="none"></path>
<use xlink:href="#path-n1x88pqojq-1" x="0" y="0" stroke="#ff4c4c">
  <animateMotion begin="-6.321568802079924s" dur="10s" keyPoints="0;1" keyTimes="0;1" repeatCount="indefinite" calcMode="linear">
    <mpath xlink:href="#path61"></mpath>
  </animateMotion>
</use><path id="path62" d="M 1851.9885296323057 628.4850357642067
c 0 34.215854548262996 -8.3719644107452 9.827958221309585 -18.199922632054783 9.827958221309585
S 1815.5886843681963 662.7008903124697 1815.5886843681963 628.4850357642067
s 8.3719644107452 -9.827958221309585 18.199922632054783 -9.827958221309585
S 1851.9885296323057 594.2691812159437 1851.9885296323057 628.4850357642067
z" fill="none" stroke="none"></path>
<use xlink:href="#path-n1x88pqojq-2" x="0" y="0" stroke="#34bf49">
  <animateMotion begin="-6.110141098646822s" dur="10s" keyPoints="1;0" keyTimes="0;1" repeatCount="indefinite" calcMode="linear">
    <mpath xlink:href="#path62"></mpath>
  </animateMotion>
</use><path id="path63" d="M 1879.1908998358638 389.4997130998422
c 0 54.506003628868385 -13.33657535599971 15.655979765738792 -28.9925551217385 15.655979765738792
S 1821.205789592387 444.0057167287106 1821.205789592387 389.4997130998422
s 13.33657535599971 -15.655979765738792 28.9925551217385 -15.655979765738792
S 1879.1908998358638 334.99370947097384 1879.1908998358638 389.4997130998422
z" fill="none" stroke="none"></path>
<use xlink:href="#path-n1x88pqojq-3" x="0" y="0" stroke="#ff4c4c">
  <animateMotion begin="-3.773513685306358s" dur="10s" keyPoints="0;1" keyTimes="0;1" repeatCount="indefinite" calcMode="linear">
    <mpath xlink:href="#path63"></mpath>
  </animateMotion>
</use><path id="path64" d="M 1911.4071690735093 430.5905876299755
c 0 42.20954329654068 -10.327866976813144 12.124017755389344 -22.45188473220249 12.124017755389344
S 1866.5033996091045 472.8001309265162 1866.5033996091045 430.5905876299755
s 10.327866976813144 -12.124017755389344 22.45188473220249 -12.124017755389344
S 1911.4071690735093 388.38104433343483 1911.4071690735093 430.5905876299755
z" fill="none" stroke="none"></path>
<use xlink:href="#path-n1x88pqojq-2" x="0" y="0" stroke="#0099e5">
  <animateMotion begin="-3.7724109494166203s" dur="10s" keyPoints="0;1" keyTimes="0;1" repeatCount="indefinite" calcMode="linear">
    <mpath xlink:href="#path64"></mpath>
  </animateMotion>
</use></g>
</svg>