<svg xmlns="http://www.w3.org/2000/svg" xmlns:xlink="http://www.w3.org/1999/xlink"
  style="margin:auto;background:#1e2425;display:block;z-index:1;position:relative" width="1920"
  height="1080" preserveAspectRatio="xMidYMid" viewBox="0 0 1920 1080">
  <g transform="translate(960,540) scale(1,1) translate(-960,-540)">
    <linearGradient id="lg-0.7246752670655698" x1="0" x2="1" y1="0" y2="0">
      <stop stop-color="#2bb673" offset="0"></stop>
      <stop stop-color="#10a9b6" offset="1"></stop>
    </linearGradient>
    <path
      d="M 1489 540 C 1489 709 1253 896 1092 948 C 931 1000 615 1001 515 864 C 415 727 375 324 474 187 C 573 50 919 120 1080 172 C 1241 224 1489 371 1489 540"
      fill="url(#lg-0.7246752670655698)" opacity="0.4">
      <animate attributeName="d" dur="10s" repeatCount="indefinite"
        keyTimes="0;0.3333333333333333;0.6666666666666666;1" calcmod="spline"
        keySplines="0.3 0.1 0.7 0.9;0.3 0.1 0.7 0.9;0.3 0.1 0.7 0.9" begin="-4s"
        values="M 1489 540 C 1489 709 1253 896 1092 948 C 931 1000 615 1001 515 864 C 415 727 375 324 474 187 C 573 50 919 120 1080 172 C 1241 224 1489 371 1489 540;M 1644 540 C 1644 720 1283 951 1112 1007 C 941 1063 525 1079 419 933 C 313 787 341 312 447 167 C 553 22 912 105 1083 160 C 1254 215 1644 360 1644 540;M 1584 540 C 1584 700 1229 852 1077 901 C 925 950 598 1000 504 871 C 410 742 483 391 577 262 C 671 133 928 122 1080 171 C 1232 220 1584 380 1584 540;M 1489 540 C 1489 709 1253 896 1092 948 C 931 1000 615 1001 515 864 C 415 727 375 324 474 187 C 573 50 919 120 1080 172 C 1241 224 1489 371 1489 540"></animate>
    </path>
    <path
      d="M 1561 540 C 1561 699 1253 927 1102 976 C 951 1025 579 1012 486 884 C 393 756 392 323 485 195 C 578 67 939 92 1090 141 C 1241 190 1561 381 1561 540"
      fill="url(#lg-0.7246752670655698)" opacity="0.4">
      <animate attributeName="d" dur="10s" repeatCount="indefinite"
        keyTimes="0;0.3333333333333333;0.6666666666666666;1" calcmod="spline"
        keySplines="0.3 0.1 0.7 0.9;0.3 0.1 0.7 0.9;0.3 0.1 0.7 0.9" begin="-4s"
        values="M 1561 540 C 1561 699 1253 927 1102 976 C 951 1025 579 1012 486 884 C 393 756 392 323 485 195 C 578 67 939 92 1090 141 C 1241 190 1561 381 1561 540;M 1482 540 C 1482 698 1227 848 1076 897 C 925 946 593 1002 500 874 C 407 746 469 379 562 251 C 655 123 924 137 1075 186 C 1226 235 1482 382 1482 540;M 1563 540 C 1563 716 1256 881 1088 935 C 920 989 638 992 534 849 C 430 706 404 355 508 212 C 612 69 919 95 1087 149 C 1255 203 1563 364 1563 540;M 1561 540 C 1561 699 1253 927 1102 976 C 951 1025 579 1012 486 884 C 393 756 392 323 485 195 C 578 67 939 92 1090 141 C 1241 190 1561 381 1561 540"></animate>
    </path>
    <path
      d="M 1536 540 C 1536 702 1228 842 1074 892 C 920 942 637 975 542 844 C 447 713 469 383 564 252 C 659 121 944 66 1098 116 C 1252 166 1536 378 1536 540"
      fill="url(#lg-0.7246752670655698)" opacity="0.4">
      <animate attributeName="d" dur="10s" repeatCount="indefinite"
        keyTimes="0;0.3333333333333333;0.6666666666666666;1" calcmod="spline"
        keySplines="0.3 0.1 0.7 0.9;0.3 0.1 0.7 0.9;0.3 0.1 0.7 0.9" begin="-4s"
        values="M 1536 540 C 1536 702 1228 842 1074 892 C 920 942 637 975 542 844 C 447 713 469 383 564 252 C 659 121 944 66 1098 116 C 1252 166 1536 378 1536 540;M 1492 540 C 1492 695 1244 914 1097 962 C 950 1010 644 961 553 836 C 462 711 438 352 529 227 C 620 102 957 48 1104 96 C 1251 144 1492 385 1492 540;M 1500 540 C 1500 699 1219 823 1068 872 C 917 921 593 1002 500 874 C 407 746 410 336 503 208 C 596 80 939 91 1090 140 C 1241 189 1500 381 1500 540;M 1536 540 C 1536 702 1228 842 1074 892 C 920 942 637 975 542 844 C 447 713 469 383 564 252 C 659 121 944 66 1098 116 C 1252 166 1536 378 1536 540"></animate>
    </path>
    <path
      d="M 1663 540 C 1663 725 1283 935 1107 992 C 931 1049 568 1053 459 904 C 350 755 406 367 515 217 C 624 67 944 -10 1120 47 C 1296 104 1663 355 1663 540"
      fill="url(#lg-0.7246752670655698)" opacity="0.4">
      <animate attributeName="d" dur="10s" repeatCount="indefinite"
        keyTimes="0;0.3333333333333333;0.6666666666666666;1" calcmod="spline"
        keySplines="0.3 0.1 0.7 0.9;0.3 0.1 0.7 0.9;0.3 0.1 0.7 0.9" begin="-4s"
        values="M 1663 540 C 1663 725 1283 935 1107 992 C 931 1049 568 1053 459 904 C 350 755 406 367 515 217 C 624 67 944 -10 1120 47 C 1296 104 1663 355 1663 540;M 1548 540 C 1548 699 1250 917 1098 966 C 946 1015 634 974 540 845 C 446 716 478 387 572 258 C 666 129 958 28 1110 77 C 1262 126 1548 381 1548 540;M 1606 540 C 1606 719 1268 909 1098 964 C 928 1019 528 1075 423 931 C 318 787 331 305 436 160 C 541 15 930 55 1100 110 C 1270 165 1606 361 1606 540;M 1663 540 C 1663 725 1283 935 1107 992 C 931 1049 568 1053 459 904 C 350 755 406 367 515 217 C 624 67 944 -10 1120 47 C 1296 104 1663 355 1663 540"></animate>
    </path>
    <path
      d="M 1569 540 C 1569 705 1228 831 1071 882 C 914 933 585 1016 488 883 C 391 750 479 394 576 261 C 673 128 927 109 1084 160 C 1241 211 1569 375 1569 540"
      fill="url(#lg-0.7246752670655698)" opacity="0.4">
      <animate attributeName="d" dur="10s" repeatCount="indefinite"
        keyTimes="0;0.3333333333333333;0.6666666666666666;1" calcmod="spline"
        keySplines="0.3 0.1 0.7 0.9;0.3 0.1 0.7 0.9;0.3 0.1 0.7 0.9" begin="-4s"
        values="M 1569 540 C 1569 705 1228 831 1071 882 C 914 933 585 1016 488 883 C 391 750 479 394 576 261 C 673 128 927 109 1084 160 C 1241 211 1569 375 1569 540;M 1544 540 C 1544 709 1242 860 1081 912 C 920 964 621 995 522 858 C 423 721 396 339 495 202 C 594 65 940 53 1101 105 C 1262 157 1544 371 1544 540;M 1665 540 C 1665 719 1276 935 1106 990 C 936 1045 554 1055 449 911 C 344 767 433 377 538 233 C 643 89 930 53 1100 108 C 1270 163 1665 361 1665 540;M 1569 540 C 1569 705 1228 831 1071 882 C 914 933 585 1016 488 883 C 391 750 479 394 576 261 C 673 128 927 109 1084 160 C 1241 211 1569 375 1569 540"></animate>
    </path>
  </g>
</svg>