<svg xmlns="http://www.w3.org/2000/svg" xmlns:xlink="http://www.w3.org/1999/xlink" style="margin:auto;background:#f1f2f3;display:block;z-index:1;position:relative" width="1920" height="1080" preserveAspectRatio="xMidYMid" viewBox="0 0 1920 1080">
    <g transform="translate(960,540) scale(1,1) translate(-960,-540)"><defs>
    <linearGradient id="lg-0.2159166617095012" x1="0" x2="0" y1="0" y2="1">
      <stop stop-color="#0e3a25" offset="0.14"></stop>
      <stop stop-color="#2bb673" offset="0.5700000000000001"></stop>
      <stop stop-color="#2bb673" offset="1"></stop>
    </linearGradient>
    <linearGradient id="fg-lg-0.2159166617095012" x1="0" x2="0" y1="0" y2="1">
      <stop stop-color="#0e3a25" stop-opacity="1" offset="0.14"></stop>
      <stop stop-color="#2bb673" stop-opacity="0.66" offset="0.5700000000000001"></stop>
      <stop stop-color="#2bb673" stop-opacity="0" offset="1"></stop>
    </linearGradient>
    <style type="text/css">
      path { fill: none; stroke: #ffffff; stroke-width: 1px }
    </style>
    </defs>
    <rect x="0" y="0" width="1920" height="1080" fill="url(#lg-0.2159166617095012)"></rect><path d="M0 151.20000000000002 L-7296 1080"></path><path d="M9.6 151.20000000000002 L-7213.44 1080"></path><path d="M19.2 151.20000000000002 L-7130.88 1080"></path><path d="M28.8 151.20000000000002 L-7048.32 1080"></path><path d="M38.4 151.20000000000002 L-6965.76 1080"></path><path d="M48 151.20000000000002 L-6883.2 1080"></path><path d="M57.6 151.20000000000002 L-6800.64 1080"></path><path d="M67.2 151.20000000000002 L-6718.08 1080"></path><path d="M76.8 151.20000000000002 L-6635.52 1080"></path><path d="M86.4 151.20000000000002 L-6552.96 1080"></path><path d="M96 151.20000000000002 L-6470.4 1080"></path><path d="M105.6 151.20000000000002 L-6387.84 1080"></path><path d="M115.2 151.20000000000002 L-6305.28 1080"></path><path d="M124.8 151.20000000000002 L-6222.72 1080"></path><path d="M134.4 151.20000000000002 L-6140.16 1080"></path><path d="M144 151.20000000000002 L-6057.6 1080"></path><path d="M153.6 151.20000000000002 L-5975.04 1080"></path><path d="M163.2 151.20000000000002 L-5892.48 1080"></path><path d="M172.8 151.20000000000002 L-5809.92 1080"></path><path d="M182.4 151.20000000000002 L-5727.36 1080"></path><path d="M192 151.20000000000002 L-5644.8 1080"></path><path d="M201.6 151.20000000000002 L-5562.24 1080"></path><path d="M211.2 151.20000000000002 L-5479.68 1080"></path><path d="M220.8 151.20000000000002 L-5397.12 1080"></path><path d="M230.4 151.20000000000002 L-5314.5599999999995 1080"></path><path d="M240 151.20000000000002 L-5232 1080"></path><path d="M249.6 151.20000000000002 L-5149.4400000000005 1080"></path><path d="M259.2 151.20000000000002 L-5066.88 1080"></path><path d="M268.8 151.20000000000002 L-4984.32 1080"></path><path d="M278.4 151.20000000000002 L-4901.76 1080"></path><path d="M288 151.20000000000002 L-4819.2 1080"></path><path d="M297.6 151.20000000000002 L-4736.639999999999 1080"></path><path d="M307.2 151.20000000000002 L-4654.08 1080"></path><path d="M316.8 151.20000000000002 L-4571.52 1080"></path><path d="M326.4 151.20000000000002 L-4488.96 1080"></path><path d="M336 151.20000000000002 L-4406.4 1080"></path><path d="M345.6 151.20000000000002 L-4323.84 1080"></path><path d="M355.2 151.20000000000002 L-4241.280000000001 1080"></path><path d="M364.8 151.20000000000002 L-4158.719999999999 1080"></path><path d="M374.4 151.20000000000002 L-4076.16 1080"></path><path d="M384 151.20000000000002 L-3993.6 1080"></path><path d="M393.6 151.20000000000002 L-3911.04 1080"></path><path d="M403.2 151.20000000000002 L-3828.48 1080"></path><path d="M412.8 151.20000000000002 L-3745.92 1080"></path><path d="M422.4 151.20000000000002 L-3663.36 1080"></path><path d="M432 151.20000000000002 L-3580.8 1080"></path><path d="M441.6 151.20000000000002 L-3498.24 1080"></path><path d="M451.2 151.20000000000002 L-3415.68 1080"></path><path d="M460.8 151.20000000000002 L-3333.12 1080"></path><path d="M470.4 151.20000000000002 L-3250.56 1080"></path><path d="M480 151.20000000000002 L-3168 1080"></path><path d="M489.6 151.20000000000002 L-3085.4399999999996 1080"></path><path d="M499.2 151.20000000000002 L-3002.88 1080"></path><path d="M508.8 151.20000000000002 L-2920.3199999999997 1080"></path><path d="M518.4 151.20000000000002 L-2837.76 1080"></path><path d="M528 151.20000000000002 L-2755.2 1080"></path><path d="M537.6 151.20000000000002 L-2672.6400000000003 1080"></path><path d="M547.2 151.20000000000002 L-2590.08 1080"></path><path d="M556.8 151.20000000000002 L-2507.5200000000004 1080"></path><path d="M566.4 151.20000000000002 L-2424.96 1080"></path><path d="M576 151.20000000000002 L-2342.3999999999996 1080"></path><path d="M585.6 151.20000000000002 L-2259.84 1080"></path><path d="M595.2 151.20000000000002 L-2177.2799999999997 1080"></path><path d="M604.8 151.20000000000002 L-2094.7200000000003 1080"></path><path d="M614.4 151.20000000000002 L-2012.1599999999999 1080"></path><path d="M624 151.20000000000002 L-1929.6000000000004 1080"></path><path d="M633.6 151.20000000000002 L-1847.04 1080"></path><path d="M643.2 151.20000000000002 L-1764.4799999999996 1080"></path><path d="M652.8 151.20000000000002 L-1681.92 1080"></path><path d="M662.4 151.20000000000002 L-1599.3599999999997 1080"></path><path d="M672 151.20000000000002 L-1516.8000000000002 1080"></path><path d="M681.6 151.20000000000002 L-1434.2399999999998 1080"></path><path d="M691.2 151.20000000000002 L-1351.6800000000003 1080"></path><path d="M700.8 151.20000000000002 L-1269.12 1080"></path><path d="M710.4 151.20000000000002 L-1186.5600000000004 1080"></path><path d="M720 151.20000000000002 L-1104 1080"></path><path d="M729.6 151.20000000000002 L-1021.4399999999996 1080"></path><path d="M739.2 151.20000000000002 L-938.8800000000001 1080"></path><path d="M748.8 151.20000000000002 L-856.3199999999997 1080"></path><path d="M758.4 151.20000000000002 L-773.7600000000002 1080"></path><path d="M768 151.20000000000002 L-691.1999999999998 1080"></path><path d="M777.6 151.20000000000002 L-608.6400000000003 1080"></path><path d="M787.2 151.20000000000002 L-526.0799999999999 1080"></path><path d="M796.8 151.20000000000002 L-443.52000000000044 1080"></path><path d="M806.4 151.20000000000002 L-360.96000000000004 1080"></path><path d="M816 151.20000000000002 L-278.39999999999964 1080"></path><path d="M825.6 151.20000000000002 L-195.84000000000015 1080"></path><path d="M835.2 151.20000000000002 L-113.27999999999975 1080"></path><path d="M844.8 151.20000000000002 L-30.720000000000255 1080"></path><path d="M854.4 151.20000000000002 L51.840000000000146 1080"></path><path d="M864 151.20000000000002 L134.39999999999964 1080"></path><path d="M873.6 151.20000000000002 L216.96000000000004 1080"></path><path d="M883.2 151.20000000000002 L299.52000000000044 1080"></path><path d="M892.8 151.20000000000002 L382.0799999999999 1080"></path><path d="M902.4 151.20000000000002 L464.6400000000003 1080"></path><path d="M912 151.20000000000002 L547.1999999999998 1080"></path><path d="M921.6 151.20000000000002 L629.7600000000002 1080"></path><path d="M931.2 151.20000000000002 L712.3199999999997 1080"></path><path d="M940.8 151.20000000000002 L794.8800000000001 1080"></path><path d="M950.4 151.20000000000002 L877.4399999999996 1080"></path><path d="M960 151.20000000000002 L960 1080"></path><path d="M969.6 151.20000000000002 L1042.5599999999995 1080"></path><path d="M979.2 151.20000000000002 L1125.1200000000008 1080"></path><path d="M988.8 151.20000000000002 L1207.6800000000003 1080"></path><path d="M998.4 151.20000000000002 L1290.2399999999998 1080"></path><path d="M1008 151.20000000000002 L1372.7999999999993 1080"></path><path d="M1017.6 151.20000000000002 L1455.3600000000006 1080"></path><path d="M1027.2 151.20000000000002 L1537.92 1080"></path><path d="M1036.8 151.20000000000002 L1620.4799999999996 1080"></path><path d="M1046.4 151.20000000000002 L1703.0400000000009 1080"></path><path d="M1056 151.20000000000002 L1785.6000000000004 1080"></path><path d="M1065.6 151.20000000000002 L1868.1599999999999 1080"></path><path d="M1075.2 151.20000000000002 L1950.7199999999993 1080"></path><path d="M1084.8 151.20000000000002 L2033.2800000000007 1080"></path><path d="M1094.4 151.20000000000002 L2115.84 1080"></path><path d="M1104 151.20000000000002 L2198.3999999999996 1080"></path><path d="M1113.6 151.20000000000002 L2280.959999999999 1080"></path><path d="M1123.2 151.20000000000002 L2363.5200000000004 1080"></path><path d="M1132.8 151.20000000000002 L2446.08 1080"></path><path d="M1142.4 151.20000000000002 L2528.6399999999994 1080"></path><path d="M1152 151.20000000000002 L2611.2000000000007 1080"></path><path d="M1161.6 151.20000000000002 L2693.76 1080"></path><path d="M1171.2 151.20000000000002 L2776.3199999999997 1080"></path><path d="M1180.8 151.20000000000002 L2858.879999999999 1080"></path><path d="M1190.4 151.20000000000002 L2941.4400000000005 1080"></path><path d="M1200 151.20000000000002 L3024 1080"></path><path d="M1209.6 151.20000000000002 L3106.5599999999995 1080"></path><path d="M1219.2 151.20000000000002 L3189.120000000001 1080"></path><path d="M1228.8 151.20000000000002 L3271.6800000000003 1080"></path><path d="M1238.4 151.20000000000002 L3354.24 1080"></path><path d="M1248 151.20000000000002 L3436.7999999999993 1080"></path><path d="M1257.6 151.20000000000002 L3519.3600000000006 1080"></path><path d="M1267.2 151.20000000000002 L3601.92 1080"></path><path d="M1276.8 151.20000000000002 L3684.4799999999996 1080"></path><path d="M1286.4 151.20000000000002 L3767.040000000001 1080"></path><path d="M1296 151.20000000000002 L3849.6000000000004 1080"></path><path d="M1305.6 151.20000000000002 L3932.16 1080"></path><path d="M1315.2 151.20000000000002 L4014.7199999999993 1080"></path><path d="M1324.8 151.20000000000002 L4097.280000000001 1080"></path><path d="M1334.4 151.20000000000002 L4179.84 1080"></path><path d="M1344 151.20000000000002 L4262.4 1080"></path><path d="M1353.6 151.20000000000002 L4344.959999999999 1080"></path><path d="M1363.2 151.20000000000002 L4427.52 1080"></path><path d="M1372.8 151.20000000000002 L4510.08 1080"></path><path d="M1382.4 151.20000000000002 L4592.639999999999 1080"></path><path d="M1392 151.20000000000002 L4675.200000000001 1080"></path><path d="M1401.6 151.20000000000002 L4757.76 1080"></path><path d="M1411.2 151.20000000000002 L4840.32 1080"></path><path d="M1420.8 151.20000000000002 L4922.879999999999 1080"></path><path d="M1430.4 151.20000000000002 L5005.4400000000005 1080"></path><path d="M1440 151.20000000000002 L5088 1080"></path><path d="M1449.6 151.20000000000002 L5170.5599999999995 1080"></path><path d="M1459.2 151.20000000000002 L5253.120000000001 1080"></path><path d="M1468.8 151.20000000000002 L5335.68 1080"></path><path d="M1478.4 151.20000000000002 L5418.24 1080"></path><path d="M1488 151.20000000000002 L5500.799999999999 1080"></path><path d="M1497.6 151.20000000000002 L5583.360000000001 1080"></path><path d="M1507.2 151.20000000000002 L5665.92 1080"></path><path d="M1516.8 151.20000000000002 L5748.48 1080"></path><path d="M1526.4 151.20000000000002 L5831.040000000001 1080"></path><path d="M1536 151.20000000000002 L5913.6 1080"></path><path d="M1545.6 151.20000000000002 L5996.16 1080"></path><path d="M1555.2 151.20000000000002 L6078.719999999999 1080"></path><path d="M1564.8 151.20000000000002 L6161.280000000001 1080"></path><path d="M1574.4 151.20000000000002 L6243.84 1080"></path><path d="M1584 151.20000000000002 L6326.4 1080"></path><path d="M1593.6 151.20000000000002 L6408.959999999999 1080"></path><path d="M1603.2 151.20000000000002 L6491.52 1080"></path><path d="M1612.8 151.20000000000002 L6574.08 1080"></path><path d="M1622.4 151.20000000000002 L6656.639999999999 1080"></path><path d="M1632 151.20000000000002 L6739.200000000001 1080"></path><path d="M1641.6 151.20000000000002 L6821.76 1080"></path><path d="M1651.2 151.20000000000002 L6904.32 1080"></path><path d="M1660.8 151.20000000000002 L6986.879999999999 1080"></path><path d="M1670.4 151.20000000000002 L7069.4400000000005 1080"></path><path d="M1680 151.20000000000002 L7152 1080"></path><path d="M1689.6 151.20000000000002 L7234.5599999999995 1080"></path><path d="M1699.2 151.20000000000002 L7317.120000000001 1080"></path><path d="M1708.8 151.20000000000002 L7399.68 1080"></path><path d="M1718.4 151.20000000000002 L7482.24 1080"></path><path d="M1728 151.20000000000002 L7564.799999999999 1080"></path><path d="M1737.6 151.20000000000002 L7647.360000000001 1080"></path><path d="M1747.2 151.20000000000002 L7729.92 1080"></path><path d="M1756.8 151.20000000000002 L7812.48 1080"></path><path d="M1766.4 151.20000000000002 L7895.040000000001 1080"></path><path d="M1776 151.20000000000002 L7977.6 1080"></path><path d="M1785.6 151.20000000000002 L8060.16 1080"></path><path d="M1795.2 151.20000000000002 L8142.719999999999 1080"></path><path d="M1804.8 151.20000000000002 L8225.28 1080"></path><path d="M1814.4 151.20000000000002 L8307.84 1080"></path><path d="M1824 151.20000000000002 L8390.4 1080"></path><path d="M1833.6 151.20000000000002 L8472.96 1080"></path><path d="M1843.2 151.20000000000002 L8555.52 1080"></path><path d="M1852.8 151.20000000000002 L8638.08 1080"></path><path d="M1862.4 151.20000000000002 L8720.64 1080"></path><path d="M1872 151.20000000000002 L8803.2 1080"></path><path d="M1881.6 151.20000000000002 L8885.76 1080"></path><path d="M1891.2 151.20000000000002 L8968.32 1080"></path><path d="M1900.8 151.20000000000002 L9050.88 1080"></path><path d="M1910.4 151.20000000000002 L9133.439999999999 1080"></path><path d="M1920 151.20000000000002 L9216 1080"></path><g>
    <path d="M0 151.20000000000002 L1920 151.20000000000002"></path>
    <animateTransform attributeName="transform" type="translate" repeatCount="indefinite" calcMode="linear" keyTimes="0;1" values="0 0;0 2.9721599999999997" begin="0s" dur="2.7777777777777772s"></animateTransform>
    
    </g><g>
    <path d="M0 154.17216000000002 L1920 154.17216000000002"></path>
    <animateTransform attributeName="transform" type="translate" repeatCount="indefinite" calcMode="linear" keyTimes="0;1" values="0 0;0 5.94432" begin="0s" dur="2.7777777777777772s"></animateTransform>
    
    </g><g>
    <path d="M0 160.11648000000002 L1920 160.11648000000002"></path>
    <animateTransform attributeName="transform" type="translate" repeatCount="indefinite" calcMode="linear" keyTimes="0;1" values="0 0;0 8.91648" begin="0s" dur="2.7777777777777772s"></animateTransform>
    
    </g><g>
    <path d="M0 169.03296000000003 L1920 169.03296000000003"></path>
    <animateTransform attributeName="transform" type="translate" repeatCount="indefinite" calcMode="linear" keyTimes="0;1" values="0 0;0 11.888639999999999" begin="0s" dur="2.7777777777777772s"></animateTransform>
    
    </g><g>
    <path d="M0 180.92160000000004 L1920 180.92160000000004"></path>
    <animateTransform attributeName="transform" type="translate" repeatCount="indefinite" calcMode="linear" keyTimes="0;1" values="0 0;0 14.860799999999998" begin="0s" dur="2.7777777777777772s"></animateTransform>
    
    </g><g>
    <path d="M0 195.78240000000005 L1920 195.78240000000005"></path>
    <animateTransform attributeName="transform" type="translate" repeatCount="indefinite" calcMode="linear" keyTimes="0;1" values="0 0;0 17.832959999999996" begin="0s" dur="2.7777777777777772s"></animateTransform>
    
    </g><g>
    <path d="M0 213.61536000000004 L1920 213.61536000000004"></path>
    <animateTransform attributeName="transform" type="translate" repeatCount="indefinite" calcMode="linear" keyTimes="0;1" values="0 0;0 20.805119999999995" begin="0s" dur="2.7777777777777772s"></animateTransform>
    
    </g><g>
    <path d="M0 234.42048000000003 L1920 234.42048000000003"></path>
    <animateTransform attributeName="transform" type="translate" repeatCount="indefinite" calcMode="linear" keyTimes="0;1" values="0 0;0 23.777279999999994" begin="0s" dur="2.7777777777777772s"></animateTransform>
    
    </g><g>
    <path d="M0 258.19776 L1920 258.19776"></path>
    <animateTransform attributeName="transform" type="translate" repeatCount="indefinite" calcMode="linear" keyTimes="0;1" values="0 0;0 26.749439999999993" begin="0s" dur="2.7777777777777772s"></animateTransform>
    
    </g><g>
    <path d="M0 284.9472 L1920 284.9472"></path>
    <animateTransform attributeName="transform" type="translate" repeatCount="indefinite" calcMode="linear" keyTimes="0;1" values="0 0;0 29.72159999999999" begin="0s" dur="2.7777777777777772s"></animateTransform>
    
    </g><g>
    <path d="M0 314.6688 L1920 314.6688"></path>
    <animateTransform attributeName="transform" type="translate" repeatCount="indefinite" calcMode="linear" keyTimes="0;1" values="0 0;0 32.69375999999999" begin="0s" dur="2.7777777777777772s"></animateTransform>
    
    </g><g>
    <path d="M0 347.36256 L1920 347.36256"></path>
    <animateTransform attributeName="transform" type="translate" repeatCount="indefinite" calcMode="linear" keyTimes="0;1" values="0 0;0 35.66591999999999" begin="0s" dur="2.7777777777777772s"></animateTransform>
    
    </g><g>
    <path d="M0 383.02847999999994 L1920 383.02847999999994"></path>
    <animateTransform attributeName="transform" type="translate" repeatCount="indefinite" calcMode="linear" keyTimes="0;1" values="0 0;0 38.638079999999995" begin="0s" dur="2.7777777777777772s"></animateTransform>
    
    </g><g>
    <path d="M0 421.66655999999995 L1920 421.66655999999995"></path>
    <animateTransform attributeName="transform" type="translate" repeatCount="indefinite" calcMode="linear" keyTimes="0;1" values="0 0;0 41.61024" begin="0s" dur="2.7777777777777772s"></animateTransform>
    
    </g><g>
    <path d="M0 463.2767999999999 L1920 463.2767999999999"></path>
    <animateTransform attributeName="transform" type="translate" repeatCount="indefinite" calcMode="linear" keyTimes="0;1" values="0 0;0 44.5824" begin="0s" dur="2.7777777777777772s"></animateTransform>
    
    </g><g>
    <path d="M0 507.85919999999993 L1920 507.85919999999993"></path>
    <animateTransform attributeName="transform" type="translate" repeatCount="indefinite" calcMode="linear" keyTimes="0;1" values="0 0;0 47.55456" begin="0s" dur="2.7777777777777772s"></animateTransform>
    
    </g><g>
    <path d="M0 555.4137599999999 L1920 555.4137599999999"></path>
    <animateTransform attributeName="transform" type="translate" repeatCount="indefinite" calcMode="linear" keyTimes="0;1" values="0 0;0 50.526720000000005" begin="0s" dur="2.7777777777777772s"></animateTransform>
    
    </g><g>
    <path d="M0 605.9404799999999 L1920 605.9404799999999"></path>
    <animateTransform attributeName="transform" type="translate" repeatCount="indefinite" calcMode="linear" keyTimes="0;1" values="0 0;0 53.49888000000001" begin="0s" dur="2.7777777777777772s"></animateTransform>
    
    </g><g>
    <path d="M0 659.4393599999999 L1920 659.4393599999999"></path>
    <animateTransform attributeName="transform" type="translate" repeatCount="indefinite" calcMode="linear" keyTimes="0;1" values="0 0;0 56.47104000000001" begin="0s" dur="2.7777777777777772s"></animateTransform>
    
    </g><g>
    <path d="M0 715.9103999999999 L1920 715.9103999999999"></path>
    <animateTransform attributeName="transform" type="translate" repeatCount="indefinite" calcMode="linear" keyTimes="0;1" values="0 0;0 59.44320000000001" begin="0s" dur="2.7777777777777772s"></animateTransform>
    
    </g><g>
    <path d="M0 775.3535999999999 L1920 775.3535999999999"></path>
    <animateTransform attributeName="transform" type="translate" repeatCount="indefinite" calcMode="linear" keyTimes="0;1" values="0 0;0 62.41536000000001" begin="0s" dur="2.7777777777777772s"></animateTransform>
    
    </g><g>
    <path d="M0 837.7689599999999 L1920 837.7689599999999"></path>
    <animateTransform attributeName="transform" type="translate" repeatCount="indefinite" calcMode="linear" keyTimes="0;1" values="0 0;0 65.38752000000001" begin="0s" dur="2.7777777777777772s"></animateTransform>
    
    </g><g>
    <path d="M0 903.1564799999999 L1920 903.1564799999999"></path>
    <animateTransform attributeName="transform" type="translate" repeatCount="indefinite" calcMode="linear" keyTimes="0;1" values="0 0;0 68.35968000000001" begin="0s" dur="2.7777777777777772s"></animateTransform>
    
    </g><g>
    <path d="M0 971.5161599999999 L1920 971.5161599999999"></path>
    <animateTransform attributeName="transform" type="translate" repeatCount="indefinite" calcMode="linear" keyTimes="0;1" values="0 0;0 71.33184000000001" begin="0s" dur="2.7777777777777772s"></animateTransform>
    
    </g><g>
    <path d="M0 1042.848 L1920 1042.848"></path>
    <animateTransform attributeName="transform" type="translate" repeatCount="indefinite" calcMode="linear" keyTimes="0;1" values="0 0;0 74.30400000000002" begin="0s" dur="2.7777777777777772s"></animateTransform>
    
    </g><rect x="0" y="0" width="1920" height="1080" fill="url(#fg-lg-0.2159166617095012)"></rect></g>
    </svg>